<svg width="32" height="32" viewBox="0 0 32 32" fill="none" xmlns="http://www.w3.org/2000/svg">
<rect width="32" height="32" fill="white" fill-opacity="0.01"/>
<rect width="24" height="24" transform="translate(4 4)" fill="white" fill-opacity="0.01"/>
<path fill-rule="evenodd" clip-rule="evenodd" d="M18.995 14.9951C19.1825 15.1826 19.2878 15.4369 19.2878 15.7021C19.2878 15.9672 19.1825 16.2215 18.995 16.4091L14.402 21.0021C14.2158 21.1846 13.9649 21.2863 13.7041 21.285C13.4433 21.2837 13.1935 21.1795 13.0091 20.995C12.8246 20.8106 12.7204 20.5608 12.7191 20.3C12.7178 20.0392 12.8195 19.7884 13.002 19.6021L16.902 15.7021L13.002 11.8021C12.8195 11.6158 12.7178 11.365 12.7191 11.1041C12.7204 10.8433 12.8246 10.5935 13.0091 10.4091C13.1935 10.2247 13.4433 10.1205 13.7041 10.1192C13.9649 10.1178 14.2158 10.2195 14.402 10.4021L18.995 14.9951Z" fill="#42526E"/>
</svg>
