<svg width="32" height="32" viewBox="0 0 32 32" fill="none" xmlns="http://www.w3.org/2000/svg">
<rect width="32" height="32" fill="white" fill-opacity="0.01"/>
<rect width="24" height="24" transform="translate(4 4)" fill="white" fill-opacity="0.01"/>
<path fill-rule="evenodd" clip-rule="evenodd" d="M13.0049 14.9955L17.5979 10.4025C17.6895 10.3091 17.7987 10.2347 17.9192 10.1837C18.0397 10.1327 18.1692 10.1061 18.3 10.1055C18.4309 10.1048 18.5605 10.1301 18.6816 10.1799C18.8026 10.2296 18.9125 10.3029 19.0051 10.3954C19.0976 10.488 19.1708 10.5979 19.2206 10.7189C19.2704 10.8399 19.2957 10.9696 19.295 11.1005C19.2943 11.2313 19.2677 11.3607 19.2168 11.4812C19.1658 11.6018 19.0914 11.711 18.9979 11.8025L15.0979 15.7025L18.9979 19.6025C19.1805 19.7888 19.2822 20.0396 19.2809 20.3005C19.2795 20.5613 19.1753 20.8111 18.9909 20.9955C18.8065 21.1799 18.5567 21.2841 18.2959 21.2855C18.035 21.2868 17.7842 21.1851 17.5979 21.0025L13.0049 16.4105C12.8175 16.223 12.7122 15.9687 12.7122 15.7035C12.7122 15.4384 12.8175 15.1841 13.0049 14.9965V14.9955Z" fill="#A5ADBA"/>
</svg>
