<svg width="298" height="330" viewBox="0 0 298 330" fill="none" xmlns="http://www.w3.org/2000/svg">
<path d="M210.417 65.7661C210.417 65.7661 235.521 43.4621 261.752 51.6246C320.33 69.8562 292.07 174.874 262.088 187.46C233.333 199.533 213.398 138.513 213.398 138.513" fill="#B3C2D1"/>
<path d="M254.542 189.362C251.758 189.362 248.973 188.732 246.212 187.474C226.272 178.389 213.217 139.014 213.087 138.617L213.709 138.415C213.835 138.808 226.811 177.916 246.485 186.883C251.623 189.223 256.834 189.318 261.963 187.163C270.596 183.539 279.372 172.112 286.042 155.812C292.838 139.2 296.277 120.141 295.477 103.519C294.184 76.642 282.172 58.3235 261.654 51.938C235.9 43.9177 210.883 65.7876 210.639 66.0091L210.204 65.5233C210.457 65.298 235.75 43.1915 261.849 51.3138C282.641 57.7861 294.818 76.3148 296.123 103.487C297.792 138.133 280.992 179.877 262.21 187.76C259.666 188.828 257.104 189.362 254.542 189.362Z" fill="#000072"/>
<g opacity="0.5">
<path d="M295.812 113.103C294.735 89.4798 285.2 68.2756 261.745 60.9764C237.387 53.3903 213.984 72.1052 210.786 74.7984L210.415 65.7637C210.415 65.7637 235.521 43.4647 261.745 51.6234C288.262 59.8765 296.987 85.9108 295.812 113.103Z" fill="white"/>
</g>
<path d="M254.539 191.127C251.511 191.127 248.482 190.442 245.474 189.071C224.842 179.669 211.944 140.808 211.398 139.16C211.226 138.634 211.271 138.062 211.522 137.569C211.773 137.076 212.21 136.703 212.737 136.532C213.264 136.361 213.838 136.405 214.332 136.655C214.827 136.906 215.201 137.342 215.373 137.867C215.499 138.254 228.246 176.641 247.208 185.282C251.943 187.439 256.547 187.523 261.266 185.533C269.351 182.136 277.997 170.777 284.396 155.139C291.099 138.757 294.493 119.97 293.703 103.596C292.819 85.1418 286.439 61.4887 261.119 53.608C236.359 45.9086 212.048 67.1078 211.806 67.3255C211.389 67.67 210.854 67.8396 210.314 67.7986C209.774 67.7576 209.271 67.5092 208.911 67.1058C208.551 66.7023 208.362 66.1753 208.384 65.6357C208.407 65.0961 208.638 64.5862 209.029 64.2133C210.091 63.2694 235.33 41.2195 262.373 49.6388C283.929 56.3465 296.542 75.4377 297.888 103.405C299.586 138.67 282.254 181.257 262.898 189.383C260.122 190.546 257.336 191.127 254.539 191.127Z" fill="#000072"/>
<path d="M214.425 87.4359C214.425 87.4359 225.255 74.7869 250.487 72.8753C275.72 70.9636 284.153 94.0178 278.401 127.233C272.65 160.448 261.029 177.646 248.21 174.694C237.038 172.122 217.779 150.405 217.619 119.435C217.487 94.7175 214.425 87.4359 214.425 87.4359Z" fill="#FED64B"/>
<g opacity="0.3">
<path d="M279.674 117.838C277.578 99.7854 268.148 88.8857 250.483 90.2248C232.169 91.6091 221.443 98.6503 216.939 102.412C215.999 91.1787 214.415 87.436 214.415 87.436C214.415 87.436 225.246 74.787 250.477 72.8741C273.256 71.1512 282.347 89.7717 279.674 117.838Z" fill="#000072"/>
</g>
<path d="M251.045 177.109C249.931 177.109 248.82 176.982 247.735 176.732C241.116 175.208 233.18 168.356 227.025 158.852C221.829 150.831 215.617 137.483 215.524 119.452C215.398 95.7294 212.515 88.3069 212.486 88.2414L212.014 87.0698L212.83 86.0957C213.295 85.552 224.521 72.7646 250.323 70.8089C260.008 70.0765 267.707 72.7671 273.213 78.8078C281.839 88.2704 284.344 105.142 280.456 127.599C276.299 151.605 268.882 168.222 259.571 174.391C256.83 176.195 253.97 177.109 251.045 177.109ZM216.798 87.991C217.692 91.1108 219.604 100.018 219.7 119.425C219.77 132.709 223.613 145.905 230.533 156.585C237.221 166.904 244.483 171.7 248.672 172.664C251.591 173.336 254.478 172.745 257.254 170.902C265.478 165.454 272.432 149.407 276.333 126.874C279.942 106.031 277.734 89.9504 270.116 81.5941C265.521 76.5602 258.967 74.3201 250.636 74.9493C230.35 76.4897 219.656 85.2701 216.798 87.991Z" fill="#000072"/>
<path d="M130.004 320.46C170.769 309.582 218.018 320.46 223.739 320.225C242.099 319.47 250.26 284.517 235.431 268.879C228.039 261.083 199.131 257.049 181.235 284.157" fill="#C2C6D2"/>
<path d="M130.089 320.775L129.919 320.146C162.579 311.431 199.821 316.714 215.725 318.97C219.72 319.537 222.607 319.944 223.725 319.9C230.479 319.621 236.362 314.533 239.864 305.939C244.385 294.848 244.232 278.63 235.195 269.1C232.076 265.811 224.165 262.673 214.158 263.545C206.658 264.202 192.441 267.775 181.509 284.334L180.964 283.976C192.047 267.189 206.483 263.563 214.102 262.896C224.324 261.999 232.446 265.253 235.669 268.652C244.897 278.385 245.069 294.901 240.465 306.184C236.862 315.025 230.768 320.261 223.749 320.551C222.569 320.602 219.81 320.207 215.629 319.615C199.77 317.364 162.62 312.1 130.089 320.775Z" fill="#000072"/>
<path d="M130.003 322.546C129.496 322.545 129.008 322.36 128.627 322.027C128.247 321.693 128.001 321.233 127.935 320.733C127.869 320.232 127.988 319.725 128.269 319.305C128.55 318.885 128.975 318.581 129.464 318.449C162.471 309.64 199.963 314.958 215.973 317.23C219.58 317.742 222.688 318.191 223.653 318.143C229.686 317.892 234.999 313.206 238.23 305.278C242.539 294.707 242.439 279.302 233.912 270.31C231.075 267.317 223.727 264.474 214.311 265.299C207.128 265.928 193.505 269.362 182.98 285.308C182.832 285.542 182.638 285.743 182.41 285.9C182.183 286.058 181.926 286.169 181.655 286.227C181.384 286.285 181.104 286.288 180.832 286.237C180.559 286.186 180.3 286.082 180.068 285.93C179.837 285.778 179.638 285.581 179.483 285.352C179.329 285.123 179.221 284.865 179.167 284.594C179.114 284.323 179.114 284.044 179.17 283.773C179.225 283.502 179.334 283.245 179.49 283.017C190.974 265.611 206.011 261.847 213.944 261.152C223.35 260.33 232.595 262.861 236.948 267.452C246.688 277.724 246.918 295.049 242.102 306.854C238.227 316.36 231.565 321.996 223.823 322.315C222.489 322.364 219.813 321.991 215.383 321.363C199.626 319.129 162.727 313.895 130.543 322.481C130.366 322.526 130.185 322.548 130.003 322.546Z" fill="#000072"/>
<path d="M185.075 186.958C221.26 185.054 232.577 164.825 240.412 163.4C250.334 161.597 263.928 171.718 261.539 186.482C259.15 201.247 236.664 232.417 196.814 231.252" fill="#B3C2D1"/>
<g opacity="0.3">
<path d="M261.541 186.481C259.154 201.246 236.666 232.416 196.815 231.252L185.078 186.961C186.651 186.877 188.176 186.763 189.659 186.606L198.297 219.184C233.82 220.232 255.55 195.567 261.534 179.744C261.912 181.974 261.915 184.251 261.541 186.481Z" fill="#000072"/>
</g>
<path d="M199.007 233.367C198.263 233.367 197.511 233.356 196.752 233.334C196.198 233.318 195.673 233.082 195.293 232.68C194.913 232.277 194.709 231.741 194.726 231.188C194.743 230.635 194.979 230.112 195.382 229.733C195.786 229.354 196.324 229.151 196.878 229.168C236.312 230.3 257.354 199.289 259.477 186.15C260.778 178.103 256.787 172.81 254.293 170.375C250.424 166.6 245.122 164.659 240.789 165.451C238.976 165.78 236.448 167.779 233.247 170.308C225.034 176.8 211.287 187.665 185.189 189.04C184.635 189.069 184.093 188.877 183.681 188.508C183.269 188.138 183.02 187.62 182.991 187.068C182.962 186.516 183.154 185.975 183.525 185.564C183.895 185.153 184.415 184.906 184.968 184.876C209.737 183.573 222.325 173.624 230.655 167.041C234.456 164.037 237.203 161.866 240.045 161.35C245.761 160.308 252.345 162.629 257.226 167.399C262.453 172.506 264.78 179.582 263.61 186.813C262.387 194.374 256.038 206.458 244.607 216.412C235.628 224.229 220.521 233.367 199.007 233.367Z" fill="#000072"/>
<path d="M226.532 189.032C226.207 188.519 225.943 187.97 225.747 187.396C225.545 186.831 225.387 186.253 225.272 185.664C225.165 185.077 225.088 184.485 225.044 183.89C225.025 183.295 225.015 182.697 225.044 182.099C225.133 179.679 225.599 177.288 226.425 175.01C227.246 172.72 228.408 170.5 229.958 168.592C230.669 167.585 231.569 166.742 232.428 165.865C232.842 165.405 233.353 165.069 233.816 164.677C234.28 164.284 234.779 163.929 235.261 163.557C235.692 163.226 236.235 163.077 236.775 163.14C237.315 163.203 237.809 163.473 238.151 163.894C238.494 164.315 238.658 164.852 238.609 165.392C238.56 165.931 238.302 166.431 237.889 166.783L237.714 166.932C237.314 167.269 236.92 167.613 236.515 167.939C236.11 168.265 235.682 168.568 235.333 168.957C234.605 169.69 233.819 170.38 233.195 171.198C232.876 171.602 232.499 171.966 232.222 172.4L231.339 173.668C231.035 174.089 230.824 174.563 230.559 175.007L230.168 175.682L229.843 176.391C228.937 178.299 228.294 180.321 227.931 182.401C227.573 184.513 227.321 186.635 226.874 188.959V188.969C226.867 189.006 226.849 189.039 226.823 189.065C226.797 189.092 226.764 189.11 226.727 189.117C226.691 189.124 226.653 189.12 226.619 189.106C226.585 189.091 226.556 189.067 226.536 189.036L226.532 189.032Z" fill="#000072"/>
<path d="M206.726 275.407L138.807 315.596L132.083 317.617L113.025 323.343L66.1776 296.83L85.1755 200.11L87.7513 194.447L97.2547 173.519L98.3628 173.434L187.212 166.693C187.212 166.693 192.426 177.561 197.348 191.331C197.98 193.103 198.579 194.899 199.145 196.719C208.493 226.677 208.964 261.87 206.726 275.407Z" fill="#B3C2D1"/>
<path d="M165.107 299.503C184.493 299.503 200.209 281.665 200.209 259.661C200.209 237.656 184.493 219.818 165.107 219.818C145.721 219.818 130.005 237.656 130.005 259.661C130.005 281.665 145.721 299.503 165.107 299.503Z" fill="white"/>
<g opacity="0.3">
<path d="M96.0671 221.047C87.5835 254.345 108.294 278.467 128.391 281.661C140.54 283.593 152.561 276.9 152.557 266.427C152.557 259.02 135.859 248.416 134.488 226.951" fill="#000072"/>
</g>
<path d="M96.548 218.153C94.2687 248.711 113.939 273.257 134.031 276.451C146.18 278.383 158.201 271.69 158.197 261.217C158.197 253.81 141.499 243.206 140.128 221.741" fill="#B3C2D1"/>
<g opacity="0.3">
<path d="M158.204 261.22C158.204 271.692 146.186 278.382 134.039 276.454C116.117 273.608 98.5357 253.78 96.5555 227.854C101.106 249.809 116.875 265.966 132.921 268.513C143.705 270.228 154.39 265.153 156.647 256.66C157.613 258.328 158.204 259.828 158.204 261.22Z" fill="#000072"/>
</g>
<path d="M140.831 221.698C142.168 224.719 142.914 227.591 143.877 230.452C144.894 233.28 145.972 236.082 147.318 238.81C148.665 241.538 150.36 244.107 152.161 246.643C153.962 249.179 155.917 251.639 157.735 254.457C157.957 254.817 158.188 255.161 158.404 255.534L159.035 256.693C159.483 257.529 159.828 258.417 160.061 259.336C160.189 259.852 160.267 260.38 160.292 260.911C160.305 261.211 160.292 261.424 160.292 261.651C160.292 261.879 160.275 262.107 160.258 262.335C160.193 263.25 160.044 264.157 159.814 265.046C159.35 266.818 158.571 268.494 157.516 269.994C157.256 270.371 156.972 270.735 156.721 271.037C156.386 271.454 156.111 271.739 155.799 272.074C155.181 272.713 154.518 273.309 153.817 273.856C151.021 276.031 147.768 277.428 144.418 278.184C141.069 278.936 137.611 279.074 134.213 278.589C130.868 278.096 127.616 277.11 124.562 275.663C121.539 274.257 118.693 272.501 116.082 270.431C110.87 266.334 106.549 261.244 103.184 255.617C99.8192 249.984 97.3667 243.856 95.9169 237.461L95.6443 236.267L95.4171 235.062C95.2581 234.261 95.1193 233.456 95.007 232.647C94.8946 231.838 94.7432 231.035 94.6397 230.225C94.5362 229.414 94.3873 228.606 94.328 227.789C94.1584 226.157 94.166 224.512 94.3507 222.881C94.4524 222.061 94.6187 221.25 94.848 220.455C95.0987 219.635 95.4372 218.844 95.8576 218.095C95.93 217.973 96.0346 217.874 96.1599 217.807C96.2853 217.74 96.4267 217.708 96.5686 217.716C96.7106 217.724 96.8478 217.77 96.9652 217.85C97.0826 217.93 97.1757 218.041 97.2345 218.17L97.2471 218.199C97.5793 218.963 97.8331 219.758 98.0044 220.573C98.1864 221.336 98.3234 222.109 98.4145 222.888C98.6114 224.418 98.7023 225.937 98.7805 227.461C98.7995 228.224 98.8525 228.985 98.9067 229.748C98.937 230.125 98.9547 230.512 98.9989 230.89L99.1503 232.023C99.2462 232.778 99.3838 233.533 99.5289 234.288L99.7397 235.421L99.9921 236.537C101.344 242.502 103.629 248.217 106.766 253.473C109.893 258.704 113.906 263.415 118.662 267.151C121.018 269.022 123.588 270.609 126.318 271.88C129 273.154 131.857 274.024 134.796 274.46C137.692 274.873 140.64 274.756 143.494 274.115C146.321 273.486 149.026 272.297 151.234 270.574C153.443 268.851 155.11 266.567 155.764 263.999C155.931 263.355 156.038 262.698 156.085 262.035C156.097 261.869 156.11 261.703 156.11 261.532C156.11 261.361 156.12 261.183 156.11 261.088C156.096 260.829 156.058 260.572 155.994 260.321C155.833 259.707 155.597 259.115 155.291 258.559L154.786 257.629C154.607 257.319 154.395 257 154.202 256.693C152.592 254.187 150.596 251.677 148.748 249.057C146.849 246.411 145.096 243.663 143.498 240.826C141.89 237.961 140.528 234.901 139.712 231.677C138.895 228.453 138.635 225.066 139.44 221.789C139.476 221.642 139.558 221.509 139.673 221.41C139.788 221.311 139.931 221.25 140.083 221.237C140.234 221.223 140.386 221.256 140.517 221.333C140.649 221.409 140.753 221.525 140.815 221.663L140.831 221.698Z" fill="#000072"/>
<path d="M158.204 261.22C158.204 264.527 157.007 267.461 154.98 269.858C154.822 269.779 154.671 269.696 154.525 269.606C153.679 269.123 152.908 268.52 152.237 267.814C150.283 265.73 149.556 263.026 150.637 260.837C151.735 258.619 154.395 257.545 157.3 257.879C157.874 259.073 158.204 260.178 158.204 261.22Z" fill="white"/>
<path d="M155.064 270.263L154.833 270.149C154.671 270.067 154.515 269.981 154.363 269.897C153.489 269.398 152.692 268.775 151.999 268.046C149.865 265.769 149.232 262.955 150.345 260.701C151.458 258.447 154.209 257.2 157.337 257.563L157.516 257.583L157.594 257.745C158.225 259.046 158.53 260.183 158.53 261.22C158.53 264.455 157.395 267.512 155.229 270.069L155.064 270.263ZM156.273 258.15C153.848 258.15 151.81 259.21 150.932 260.988C149.941 262.993 150.532 265.519 152.475 267.598C153.124 268.28 153.869 268.863 154.687 269.329C154.757 269.37 154.826 269.409 154.897 269.446C156.848 267.055 157.877 264.215 157.877 261.218C157.877 260.325 157.617 259.331 157.083 258.189C156.809 258.164 156.538 258.15 156.273 258.15Z" fill="#000072"/>
<path d="M154.87 269.988C152.253 273.026 148.308 275.193 143.803 276.182C142.011 273.593 141.76 270.499 143.425 268.456C145.305 266.148 149.026 265.95 152.239 267.827C152.713 268.097 153.164 268.406 153.587 268.749C153.92 269.017 154.234 269.308 154.527 269.619C154.65 269.734 154.764 269.857 154.87 269.988Z" fill="white"/>
<path d="M143.66 276.548L143.533 276.368C141.618 273.599 141.47 270.337 143.167 268.251C145.116 265.86 148.999 265.559 152.401 267.539C152.888 267.818 153.352 268.136 153.789 268.489C154.133 268.768 154.459 269.069 154.763 269.391C154.892 269.514 155.013 269.646 155.124 269.785L155.293 269.995L155.117 270.2C152.491 273.247 148.498 275.486 143.873 276.5L143.66 276.548ZM147.81 266.883C146.134 266.883 144.635 267.485 143.676 268.661C142.199 270.476 142.315 273.329 143.95 275.816C148.241 274.833 151.944 272.773 154.438 269.986C154.392 269.94 154.347 269.893 154.299 269.848C154.012 269.543 153.704 269.258 153.379 268.995C152.969 268.663 152.533 268.365 152.075 268.104C150.669 267.286 149.176 266.883 147.81 266.883Z" fill="#000072"/>
<path d="M142.043 276.505C139.388 276.894 136.689 276.876 134.039 276.454C132.498 276.209 130.979 275.845 129.495 275.365C129.61 272.264 131.229 269.669 133.749 269.009C137.05 268.128 140.651 270.91 141.789 275.203C141.903 275.631 141.988 276.066 142.043 276.505Z" fill="white"/>
<path d="M138.223 277.114C136.804 277.115 135.388 277.002 133.987 276.778C132.429 276.531 130.893 276.163 129.392 275.679L129.157 275.603L129.166 275.351C129.292 271.991 131.059 269.376 133.663 268.693C135.074 268.315 136.565 268.55 137.966 269.363C139.925 270.496 141.433 272.595 142.102 275.118C142.221 275.561 142.31 276.011 142.367 276.465L142.405 276.78L142.091 276.826C140.81 277.017 139.517 277.113 138.223 277.114ZM129.831 275.135C131.224 275.573 132.647 275.91 134.089 276.142C136.599 276.543 139.155 276.575 141.674 276.237C141.625 275.939 141.558 275.628 141.471 275.295C140.84 272.939 139.452 270.984 137.638 269.936C136.388 269.212 135.071 269.004 133.829 269.332C131.569 269.917 130.018 272.182 129.831 275.131V275.135Z" fill="#000072"/>
<path d="M155.397 271.889L154.246 271.313C154.063 271.22 153.885 271.123 153.714 271.025C152.729 270.464 151.831 269.761 151.05 268.939C148.526 266.251 147.813 262.876 149.174 260.13C150.534 257.384 153.804 255.851 157.487 256.273L158.379 256.375L158.77 257.183C159.487 258.665 159.837 259.987 159.837 261.224C159.837 264.771 158.589 268.121 156.228 270.914L155.397 271.889ZM156.201 259.454C154.308 259.471 152.75 260.253 152.103 261.563C151.369 263.047 151.891 265.067 153.429 266.709C153.776 267.075 154.157 267.408 154.565 267.705C155.88 265.797 156.578 263.534 156.565 261.219C156.55 260.613 156.427 260.016 156.201 259.454Z" fill="#000072"/>
<path d="M143.083 278.008L142.461 277.107C140.212 273.859 140.088 269.97 142.154 267.43C144.513 264.536 149.095 264.109 153.061 266.415C153.605 266.726 154.124 267.081 154.611 267.476C154.992 267.784 155.352 268.116 155.69 268.471C155.852 268.629 156.004 268.797 156.145 268.975L156.991 270.029L156.107 271.054C153.299 274.312 149.054 276.699 144.154 277.776L143.083 278.008ZM147.798 268.179C146.517 268.179 145.4 268.617 144.689 269.483C143.719 270.676 143.705 272.527 144.588 274.313C147.744 273.45 150.508 271.965 152.577 270.024L152.552 270.003C152.199 269.718 151.824 269.462 151.43 269.236C150.215 268.529 148.943 268.179 147.798 268.179Z" fill="#000072"/>
<path d="M138.223 278.414C136.735 278.414 135.25 278.296 133.781 278.062C132.156 277.803 130.552 277.419 128.986 276.914L127.811 276.537L127.856 275.306C128.002 271.358 130.149 268.27 133.325 267.435C135.05 266.977 136.93 267.263 138.618 268.24C140.874 269.546 142.603 271.933 143.36 274.784C143.495 275.284 143.594 275.794 143.658 276.308L143.85 277.881L142.278 278.114C140.935 278.312 139.58 278.413 138.223 278.414ZM131.272 274.195C132.267 274.467 133.275 274.684 134.294 274.845C136.197 275.149 138.128 275.231 140.05 275.09C139.462 273.328 138.34 271.84 136.982 271.054C136.324 270.676 135.3 270.281 134.165 270.582C132.738 270.957 131.657 272.347 131.272 274.195Z" fill="#000072"/>
<path d="M26.834 286.126C26.834 286.126 40.6801 277.595 39.5026 266.292C38.1395 253.211 33.6378 256.003 30.7085 237.99C30.7085 237.99 6.03388 253.067 12.2899 273.09C15.5953 283.672 26.834 286.126 26.834 286.126Z" fill="#83909D"/>
<path d="M26.834 286.452C26.8107 286.452 26.7874 286.45 26.7646 286.445C26.6498 286.42 15.3013 283.826 11.9757 273.183C5.71841 253.15 30.2896 237.86 30.542 237.708C30.5877 237.68 30.6396 237.663 30.6931 237.66C30.7466 237.657 30.8001 237.667 30.8489 237.689C30.8977 237.711 30.9402 237.745 30.9727 237.788C31.0052 237.83 31.0268 237.88 31.0354 237.933C32.5499 247.271 34.4884 250.973 36.196 254.24C37.7938 257.292 39.172 259.93 39.8308 266.254C41.0171 277.633 27.1508 286.316 27.0107 286.403C26.9579 286.436 26.8965 286.454 26.834 286.452ZM30.4662 238.528C27.2808 240.618 6.94135 254.863 12.6005 272.989C15.6218 282.662 25.529 285.462 26.776 285.778C28.091 284.927 40.2649 276.754 39.177 266.322C38.5296 260.12 37.1779 257.535 35.6129 254.541C33.9117 251.289 31.9883 247.611 30.4662 238.528Z" fill="#000072"/>
<g opacity="0.5">
<path d="M39.5518 266.341C37.0555 261.497 34.284 260.01 30.7956 252.749C29.006 249.024 23.9944 248.29 21.2204 251.356C17.5856 255.374 13.3804 261.035 11.327 267.42C10.065 249.946 30.706 237.333 30.706 237.333C33.6365 255.343 38.1358 252.555 39.5026 265.637C39.5253 265.871 39.5405 266.106 39.5518 266.341Z" fill="white"/>
</g>
<g opacity="0.3">
<path d="M26.834 286.129C26.834 286.129 15.5953 283.675 12.2887 273.087C11.0065 269.036 10.9372 264.7 12.0893 260.609C12.1776 260.861 12.271 261.113 12.3669 261.352C16.4876 271.661 30.7716 272.502 36.5721 263.03C37.2298 261.966 37.7831 260.842 38.2241 259.672C38.763 261.381 39.2009 263.465 39.4988 266.289C40.6801 277.594 26.834 286.129 26.834 286.129Z" fill="#000072"/>
</g>
<path d="M26.834 288.21C26.6837 288.211 26.5339 288.195 26.3872 288.163C25.8824 288.052 13.9193 285.315 10.2921 273.705C3.63091 252.38 28.5516 236.859 29.6156 236.202C29.9081 236.024 30.2402 235.919 30.5827 235.899C30.9251 235.879 31.2674 235.942 31.5792 236.085C31.891 236.228 32.1628 236.445 32.3706 236.717C32.5784 236.989 32.7158 237.308 32.7707 237.646C34.2436 246.707 36.1089 250.274 37.7546 253.422C39.365 256.5 40.8858 259.409 41.5799 266.067C42.8799 278.526 28.5441 287.517 27.9332 287.895C27.6034 288.1 27.2227 288.209 26.834 288.21ZM29.2319 241.555C23.3481 245.953 9.7595 257.986 14.284 272.466C16.7198 280.268 23.9868 283.11 26.4629 283.867C29.1524 281.996 38.3049 274.965 37.4227 266.5C36.8106 260.632 35.5927 258.301 34.0492 255.35C32.4704 252.334 30.706 248.96 29.2281 241.555H29.2319Z" fill="#000072"/>
<path d="M66.353 293.952C66.353 293.952 47.2189 307.261 29.6459 298.257C18.7833 292.687 17.5465 280.348 21.8211 271.164C23.1715 268.27 27.619 269.516 27.1558 272.675C26.6573 276.081 27.4675 279.891 30.942 283.723C41.9295 295.847 67.2554 278.959 67.2554 278.959" fill="#B3C2D1"/>
<g opacity="0.3">
<path d="M67.2592 278.954L66.3556 293.954C66.3556 293.954 47.2214 307.26 29.6446 298.257C21.4109 294.037 18.7101 285.924 19.7488 278.247C20.5376 283.827 23.6006 289.021 29.6446 292.122C47.2214 301.13 66.3556 287.823 66.3556 287.823L66.873 279.2C67.128 279.042 67.2592 278.954 67.2592 278.954Z" fill="#000072"/>
</g>
<path d="M43.0036 303.492C38.3933 303.492 33.5053 302.572 28.6905 300.103C16.6845 293.948 15.1965 280.441 19.9318 270.277C20.9856 268.012 23.4037 266.937 25.8143 267.656C28.1806 268.359 29.5866 270.55 29.2307 272.97C28.7435 276.298 29.8112 279.356 32.4969 282.319C42.1467 292.966 65.8608 277.38 66.0994 277.22C66.5603 276.913 67.1247 276.801 67.6685 276.909C68.2123 277.016 68.6909 277.335 68.999 277.795C69.3071 278.254 69.4195 278.817 69.3114 279.359C69.2034 279.901 68.8838 280.379 68.4228 280.686C67.6328 281.212 53.9848 290.184 41.9056 290.185C37.2183 290.185 32.7682 288.835 29.396 285.113C25.8723 281.225 24.4247 276.933 25.0949 272.367C25.1163 272.216 25.1757 271.815 24.6191 271.649C24.3313 271.563 23.9426 271.561 23.723 272.034C19.8283 280.39 20.9402 291.441 30.6013 296.394C46.8201 304.712 64.9787 292.367 65.1591 292.241C65.614 291.925 66.1762 291.802 66.722 291.9C67.2678 291.997 67.7525 292.306 68.0695 292.76C68.3864 293.213 68.5097 293.774 68.4122 294.318C68.3147 294.862 68.0044 295.346 67.5495 295.662C66.9399 296.085 56.0887 303.492 43.0036 303.492Z" fill="#000072"/>
<path d="M99.6652 166.688C99.6652 166.688 47.3728 245.296 54.0895 293.726C55.6861 305.233 59.866 315.246 69.281 322.093C75.5712 326.665 83.4843 328.396 99.4532 326.892C105.154 326.356 116.603 326.994 122.324 326.758C140.685 326.003 144.744 291.05 129.914 275.412C122.522 267.609 93.6149 263.582 75.7176 290.691L99.6652 166.688Z" fill="#B3C2D1"/>
<g opacity="0.4">
<path d="M105.196 279.44C105.196 279.44 98.6619 279.372 91.4732 281.994C85.2297 284.27 75.7188 290.677 75.7188 290.677C92.9839 264.689 118.011 270.992 118.011 270.992C118.011 270.992 111.545 272.88 108.608 274.827C105.671 276.773 105.196 279.44 105.196 279.44Z" fill="white"/>
</g>
<g opacity="0.3">
<path d="M138.642 306.052C137.32 317.113 131.676 326.365 122.324 326.757C116.603 326.991 105.16 326.35 99.4545 326.882C83.4818 328.393 75.5724 326.658 69.281 322.085C59.866 315.244 55.6861 305.221 54.087 293.721C52.0917 279.326 55.31 262.259 60.8164 245.396C57.4832 258.394 55.9057 271.123 57.4517 282.252C59.0457 293.76 61.7137 304.373 70.0484 312.483C76.678 318.935 89.3176 319.931 97.2837 316.825C103.959 314.222 105.974 306.828 105.974 306.828C105.974 306.828 114.075 317.594 124.76 315.59C132.827 314.077 135.841 311.408 138.642 306.052Z" fill="#000072"/>
</g>
<path d="M100.246 167.072C97.2042 173.716 93.7146 180.053 90.2414 186.398L85.048 195.92C83.348 199.109 81.624 202.286 79.9757 205.502C76.6717 211.93 73.6006 218.466 70.7627 225.109C67.9281 231.745 65.327 238.475 63.0641 245.306C60.8012 252.137 58.8917 259.072 57.5413 266.093C56.1909 273.114 55.416 280.23 55.6671 287.278C55.9397 294.278 57.2144 301.382 60.1058 307.629C60.8062 309.205 61.6796 310.682 62.5933 312.125C63.537 313.547 64.5898 314.893 65.7422 316.153C66.016 316.48 66.3278 316.771 66.6256 317.073C66.9235 317.375 67.2226 317.682 67.5394 317.967C68.1906 318.52 68.8014 319.118 69.4956 319.621C70.7963 320.687 72.2113 321.607 73.7146 322.363C76.6868 323.857 80.0111 324.679 83.4679 325.032C86.9247 325.386 90.4786 325.394 94.044 325.2L96.7208 325.027L99.4141 324.802C101.344 324.639 103.2 324.606 105.044 324.588C108.736 324.564 112.383 324.659 116.01 324.703C117.82 324.724 119.63 324.742 121.393 324.703C122.199 324.685 123.004 324.617 123.802 324.5L124.925 324.248C125.291 324.138 125.646 323.99 126.01 323.871C128.859 322.729 131.228 320.386 132.876 317.518C133.728 316.071 134.423 314.538 134.953 312.945C135.528 311.349 135.909 309.673 136.232 307.986C136.827 304.578 136.989 301.108 136.713 297.659C136.607 295.929 136.323 294.217 136.011 292.518C135.64 290.833 135.23 289.152 134.645 287.537C133.564 284.304 131.949 281.274 129.865 278.573C129.623 278.227 129.33 277.927 129.057 277.609L128.643 277.137C128.518 276.982 128.382 276.837 128.236 276.702L127.84 276.324C127.706 276.198 127.543 276.086 127.398 275.967C127.095 275.722 126.778 275.496 126.447 275.29C125.057 274.412 123.56 273.715 121.994 273.213C118.793 272.164 115.344 271.682 111.905 271.695C108.451 271.709 105.015 272.2 101.696 273.154C98.3766 274.116 95.224 275.593 92.2973 277.41C89.3517 279.238 86.5811 281.332 84.0207 283.666C81.3918 285.974 78.9459 288.513 76.2993 291.067L76.2892 291.077C76.1723 291.19 76.0199 291.26 75.8576 291.275C75.6954 291.289 75.5331 291.247 75.3979 291.157C75.2627 291.066 75.1629 290.932 75.1152 290.776C75.0674 290.621 75.0747 290.454 75.1357 290.303C77.9489 283.343 83.3985 277.492 89.9852 273.603C96.6148 269.783 104.2 267.539 111.891 267.526C115.731 267.515 119.589 268.038 123.313 269.258C125.217 269.867 127.035 270.716 128.724 271.784C129.165 272.061 129.589 272.364 129.995 272.69C130.201 272.858 130.412 273.009 130.611 273.193L131.203 273.756C131.389 273.931 131.564 274.117 131.728 274.313L132.214 274.866C132.533 275.243 132.873 275.594 133.155 275.998C135.526 279.064 137.365 282.503 138.597 286.174C139.249 287.976 139.704 289.833 140.112 291.693C140.459 293.563 140.766 295.443 140.884 297.34C141.188 301.139 141.009 304.962 140.35 308.718C139.992 310.596 139.564 312.473 138.909 314.299C138.29 316.155 137.477 317.941 136.483 319.629C135.474 321.324 134.29 322.97 132.777 324.367C131.264 325.803 129.496 326.948 127.564 327.741C127.068 327.916 126.576 328.108 126.071 328.259L124.532 328.608C123.529 328.761 122.517 328.849 121.503 328.872C119.625 328.919 117.792 328.899 115.96 328.878C112.3 328.833 108.669 328.741 105.077 328.764C103.286 328.779 101.491 328.817 99.7914 328.96L97.0401 329.19L94.2636 329.37C90.5582 329.569 86.8048 329.586 83.0148 329.184C79.2248 328.783 75.3654 327.873 71.8241 326.09C70.072 325.208 68.4216 324.139 66.902 322.901C66.1233 322.331 65.4267 321.658 64.6947 321.032C64.3362 320.708 64.0043 320.356 63.6585 320.025C63.3127 319.694 62.9656 319.35 62.6489 318.982C61.3451 317.558 60.154 316.035 59.086 314.427C58.0549 312.804 57.0794 311.14 56.3007 309.393C54.66 305.93 53.5923 302.27 52.7984 298.599C52.4375 296.754 52.0866 294.919 51.915 293.051C51.7434 291.182 51.4922 289.304 51.4922 287.434C51.2272 279.957 52.0551 272.549 53.437 265.307C54.819 258.066 56.7967 250.961 59.0949 244C63.6926 230.06 69.6786 216.681 76.1151 203.568C77.7192 200.285 79.3725 197.023 81.1002 193.808C81.9593 192.197 82.8322 190.593 83.719 188.994C84.6378 187.416 85.5149 185.814 86.4678 184.255C90.2073 177.98 94.1853 171.836 99.0885 166.301C99.1998 166.175 99.3532 166.092 99.5206 166.069C99.688 166.045 99.8582 166.083 100 166.175C100.142 166.267 100.246 166.406 100.293 166.568C100.34 166.73 100.327 166.903 100.256 167.056L100.246 167.072Z" fill="#000072"/>
<path d="M87.5873 65.7661C87.5873 65.7661 62.4785 43.4621 36.2528 51.6246C-22.3259 69.8562 5.9317 174.874 35.9158 187.46C64.672 199.533 84.6076 138.513 84.6076 138.513" fill="#B3C2D1"/>
<path d="M43.4579 189.362C40.8951 189.362 38.339 188.828 35.7896 187.76C17.0063 179.875 0.2082 138.133 1.87665 103.487C3.18415 76.3148 15.358 57.7862 36.1556 51.3138C62.2538 43.1903 87.5481 65.2981 87.8005 65.5233L87.3664 66.0091C87.1165 65.7876 62.0936 43.924 36.3474 51.9355C15.8338 58.321 3.82275 76.6383 2.52409 103.517C1.72899 120.139 5.17443 139.199 11.9643 155.809C18.6343 172.109 27.4095 183.536 36.0433 187.161C41.1761 189.315 46.3834 189.221 51.5212 186.88C71.1956 177.913 84.1683 138.806 84.2971 138.412L84.918 138.615C84.7918 139.011 71.7269 178.383 51.7926 187.472C49.0274 188.731 46.242 189.362 43.4579 189.362Z" fill="#000072"/>
<g opacity="0.5">
<path d="M87.5873 65.7637L87.3348 72.0209C80.449 66.7692 59.8054 53.1663 38.4147 59.8199C4.50805 70.3748 -0.309249 109.988 7.46002 143.941C-3.05803 108.47 -0.424096 63.0391 36.254 51.6234C62.4785 43.4647 87.5873 65.7637 87.5873 65.7637Z" fill="white"/>
</g>
<path d="M43.4592 191.127C40.6687 191.127 37.8783 190.545 35.1056 189.381C15.7493 181.255 -1.58266 138.664 0.114815 103.402C1.46144 75.4389 14.0745 56.3439 35.6293 49.6362C62.6741 41.2182 87.9116 63.2681 88.9755 64.2107C89.1864 64.3908 89.3592 64.611 89.4838 64.8585C89.6084 65.106 89.6823 65.3758 89.7012 65.652C89.72 65.9283 89.6835 66.2055 89.5937 66.4676C89.5039 66.7296 89.3626 66.9712 89.1781 67.1781C88.9936 67.3851 88.7696 67.5533 88.5192 67.673C88.2687 67.7926 87.9969 67.8613 87.7195 67.875C87.4422 67.8888 87.1649 67.8472 86.9038 67.7528C86.6427 67.6585 86.4031 67.5132 86.199 67.3254C85.8974 67.0599 61.614 45.9224 36.8813 53.618C11.5529 61.4949 5.17443 85.1481 4.29099 103.602C3.50346 119.977 6.89589 138.763 13.5987 155.145C19.9961 170.783 28.6488 182.146 36.7261 185.54C41.45 187.523 46.0489 187.439 50.7842 185.288C69.7505 176.647 82.4936 138.26 82.6198 137.873C82.7916 137.348 83.1658 136.912 83.66 136.662C84.1542 136.411 84.7279 136.367 85.255 136.538C85.782 136.71 86.2191 137.083 86.4703 137.576C86.7214 138.068 86.7659 138.64 86.594 139.166C86.0551 140.814 73.1568 179.675 52.5246 189.077C49.5196 190.441 46.4881 191.126 43.4592 191.127Z" fill="#000072"/>
<path d="M83.5802 87.436C83.5802 87.436 72.7492 74.787 47.518 72.8754C22.2868 70.9638 13.8524 94.0204 19.6037 127.229C25.3549 160.438 36.9785 177.647 49.7948 174.694C60.9653 172.122 80.2257 150.405 80.3847 119.435C80.5122 94.7176 83.5802 87.436 83.5802 87.436Z" fill="#FED64B"/>
<g opacity="0.3">
<path d="M83.5815 87.4373C83.5815 87.4373 81.7212 91.8508 80.839 105.465C80.1221 104.969 79.3397 104.458 78.4764 103.944C72.6406 100.42 63.4137 96.5185 50.2831 95.5293C29.6585 93.9663 20.2611 109.086 20.6473 132.792C20.283 130.994 19.9347 129.14 19.6023 127.232C13.8499 94.0229 22.288 70.9637 47.5192 72.8754C60.6497 73.8696 69.8767 77.7709 75.7125 81.2946C81.0889 84.5251 83.5815 87.4373 83.5815 87.4373Z" fill="#000072"/>
</g>
<path d="M46.9551 177.109C44.0284 177.109 41.1723 176.195 38.4286 174.378C29.1171 168.212 21.6999 151.592 17.5439 127.587C13.6555 105.13 16.1544 88.2578 24.7869 78.7953C30.2933 72.7545 37.9944 70.0639 47.677 70.7963C73.4787 72.752 84.7047 85.5395 85.1692 86.0831L86.0059 87.0597L85.5112 88.2314C85.4342 88.4302 82.5958 95.927 82.4747 119.442C82.3825 137.473 76.1643 150.821 70.9747 158.842C64.8196 168.346 56.8838 175.203 50.2642 176.722C49.1795 176.975 48.0693 177.105 46.9551 177.109ZM44.6771 74.8487C37.6095 74.8487 31.9744 77.1139 27.8916 81.5979C20.2738 89.9555 18.0664 106.035 21.6747 126.878C25.577 149.405 32.5284 165.458 40.7546 170.906C43.5311 172.745 46.4175 173.336 49.3366 172.668C53.5254 171.704 60.7886 166.914 67.4763 156.588C74.3924 145.909 78.2392 132.712 78.3073 119.429C78.4083 100.022 80.3266 91.1133 81.2101 87.9948C78.3439 85.2701 67.6467 76.4897 47.3602 74.9531C46.4414 74.8835 45.5471 74.8487 44.6771 74.8487Z" fill="#000072"/>
<g opacity="0.3">
<path d="M199.14 196.714C185.811 202.007 169.238 205.44 150.874 205.44C128.746 205.44 108.681 202.523 93.8118 196.984C91.6797 196.193 89.6604 195.346 87.7539 194.442C86.5415 193.875 85.3778 193.283 84.263 192.665C92.7428 177.093 99.6665 166.688 99.6665 166.688L98.3653 173.429L187.215 166.688C187.215 166.688 192.428 177.556 197.35 191.326C197.978 193.098 198.575 194.894 199.14 196.714Z" fill="#000072"/>
</g>
<path d="M187.495 166.55C191.006 170.083 192.975 174.377 194.831 178.686C196.724 182.994 198.457 187.352 199.973 191.828C200.685 194.094 201.487 196.324 202.065 198.624L202.996 202.046C203.311 203.186 203.543 204.344 203.821 205.49L204.635 208.936L205.337 212.401C205.561 213.559 205.828 214.708 206.016 215.869L206.615 219.35C207.433 223.988 208.04 228.655 208.579 233.328C208.801 235.669 209.046 238.008 209.225 240.353C209.383 242.699 209.604 245.041 209.748 247.39C209.82 248.566 209.918 249.739 209.967 250.914C210.016 252.09 210.032 253.269 210.054 254.447C210.077 255.625 210.039 256.804 209.977 257.982C209.915 259.16 209.88 260.338 209.755 261.516C209.657 262.693 209.532 263.869 209.392 265.039C209.252 266.21 209.037 267.386 208.844 268.553C208.763 269.137 208.61 269.72 208.487 270.3C208.363 270.88 208.234 271.461 208.088 272.038C207.804 273.192 207.425 274.336 207.043 275.458C207.018 275.528 206.969 275.588 206.905 275.626C206.84 275.664 206.765 275.68 206.691 275.669C206.617 275.659 206.549 275.623 206.498 275.568C206.447 275.514 206.417 275.443 206.412 275.369V275.353C206.221 270.645 206.056 266.05 205.833 261.427C205.818 260.851 205.792 260.275 205.752 259.698C205.712 259.122 205.703 258.544 205.677 257.968C205.622 256.816 205.622 255.665 205.551 254.512L205.4 247.59C205.375 245.281 205.204 242.976 205.054 240.669C204.879 238.366 204.638 236.067 204.423 233.767C203.894 229.176 203.297 224.593 202.496 220.05C202.094 217.777 201.679 215.505 201.164 213.254L200.432 209.875L199.58 206.526C199.28 205.415 199.026 204.291 198.689 203.191L197.697 199.889C197.074 197.674 196.273 195.526 195.552 193.345C194.071 188.989 192.397 184.661 190.79 180.321C189.104 176.002 187.383 171.724 186.918 166.819V166.812C186.914 166.768 186.918 166.723 186.931 166.681C186.944 166.638 186.966 166.599 186.994 166.565C187.022 166.53 187.057 166.502 187.097 166.481C187.136 166.46 187.179 166.448 187.224 166.444C187.274 166.44 187.324 166.448 187.371 166.467C187.418 166.485 187.46 166.514 187.495 166.55Z" fill="#000072"/>
<path d="M232.287 156.804C230.055 174.963 195.836 195.537 150.873 195.537C105.911 195.537 69.4552 183.496 67.8372 161.873C67.48 157.101 68.3345 152.375 72.1017 143.751C73.6011 140.316 73.6831 137.176 72.8905 133.53C70.5923 122.959 66.2975 117.965 66.2104 106.241C65.8861 63.1208 105.684 27.6631 150.608 27.5259C195.692 27.3875 232.287 62.4236 232.287 105.666C232.287 117.611 229.498 124.873 224.507 133.537C222.632 136.792 222.979 139.167 225.308 142.143C229.794 147.878 233.23 149.183 232.287 156.804Z" fill="#B3C2D1"/>
<path d="M150.873 195.867C128.283 195.867 107.727 192.762 92.9838 187.123C77.0995 181.047 68.2915 172.326 67.5116 161.902C67.1178 156.644 68.2802 151.688 71.8026 143.621C73.1808 140.461 73.4105 137.464 72.5712 133.6C71.7105 129.635 70.5696 126.469 69.4678 123.406C67.6529 118.372 65.934 113.605 65.8835 106.241C65.7384 86.8407 73.7323 68.0189 88.395 53.243C104.749 36.7569 127.424 27.2705 150.607 27.1987H150.877C173.254 27.1987 194.127 35.7048 209.679 51.1653C224.468 65.8669 232.612 85.2223 232.612 105.666C232.612 117.754 229.745 125.097 224.788 133.699C223.033 136.745 223.243 138.978 225.562 141.942C226.572 143.225 227.53 144.301 228.379 145.248C231.374 148.587 233.352 150.793 232.609 156.848C231.485 165.989 222.193 175.868 207.746 183.276C191.921 191.395 171.72 195.867 150.873 195.867ZM150.873 27.8506H150.606C127.595 27.9224 105.092 37.3434 88.8594 53.7024C74.3204 68.3549 66.3947 87.0119 66.536 106.239C66.5903 113.49 68.2865 118.195 70.0824 123.187C71.1918 126.269 72.339 129.455 73.2098 133.461C74.0806 137.467 73.8408 140.585 72.4008 143.88C68.4316 152.974 67.8372 157.498 68.1628 161.854C69.6558 181.808 102.895 195.216 150.873 195.216C171.618 195.216 191.713 190.77 207.454 182.696C221.703 175.388 230.866 165.695 231.962 156.771C232.67 151.008 230.873 149.005 227.896 145.684C227.038 144.728 226.066 143.644 225.05 142.345C222.566 139.171 222.334 136.656 224.223 133.376C229.123 124.871 231.96 117.609 231.96 105.668C231.96 85.3985 223.883 66.2066 209.219 51.6284C193.79 36.2887 173.078 27.8506 150.877 27.8506H150.873Z" fill="#000072"/>
<g opacity="0.5">
<path d="M232.287 105.668C232.287 106.835 232.261 107.957 232.209 109.034C230.296 67.421 194.473 34.2638 150.606 34.3947C107.157 34.5294 68.4972 67.7029 66.3076 108.903C66.2508 108.054 66.2142 107.168 66.2091 106.241C65.8797 63.1221 105.683 27.6631 150.606 27.5272C195.692 27.3862 232.287 62.4249 232.287 105.668Z" fill="white"/>
</g>
<g opacity="0.3">
<path d="M232.287 156.81C230.057 174.967 195.838 195.541 150.874 195.541C105.909 195.541 69.4539 183.501 67.8385 161.879C67.6505 159.415 67.7918 156.971 68.4872 153.981C73.8005 173.248 108.573 183.907 150.874 183.907C192.379 183.907 224.732 166.376 231.217 149.396C232.25 151.24 232.705 153.392 232.287 156.81Z" fill="#000072"/>
</g>
<path d="M150.874 197.625C128.076 197.625 107.293 194.479 92.3528 188.764C75.7857 182.428 66.5878 173.184 65.7536 162.033C65.3358 156.457 66.5373 151.278 70.1859 142.919C71.4051 140.124 71.6032 137.448 70.8485 133.972C70.0118 130.121 68.891 127.009 67.8082 124.001C65.9403 118.816 64.1772 113.918 64.1204 106.257C63.9703 86.3839 72.1472 67.1178 87.1418 52.0072C103.822 35.1964 126.954 25.5136 150.602 25.4419H150.877C173.721 25.4419 195.038 34.1254 210.925 49.9219C226.048 64.9557 234.377 84.7529 234.377 105.673C234.377 118.152 231.422 125.723 226.32 134.581C224.931 136.998 225.077 138.466 226.951 140.874C227.919 142.11 228.821 143.116 229.693 144.089C232.769 147.52 235.198 150.228 234.363 157.075C232.003 176.248 197.135 197.625 150.874 197.625ZM150.874 29.6087H150.611C128.069 29.6792 106.013 38.9114 90.1114 54.9395C75.9043 69.256 68.1515 87.47 68.2991 106.225C68.3509 113.178 69.9222 117.541 71.7408 122.593C72.8691 125.728 74.0365 128.971 74.9313 133.089C75.874 137.428 75.5926 140.972 74.0163 144.581C70.1922 153.343 69.6142 157.635 69.9196 161.723C71.3407 180.703 103.869 193.458 150.872 193.458C193.685 193.458 228.07 173.974 230.211 156.556C230.822 151.586 229.493 150.103 226.58 146.855C225.704 145.88 224.711 144.772 223.658 143.426C220.728 139.681 220.44 136.414 222.694 132.5C227.444 124.253 230.196 117.218 230.196 105.668C230.196 85.8692 222.303 67.1203 207.973 52.8743C192.878 37.8644 172.609 29.6087 150.877 29.6087H150.874Z" fill="#000072"/>
<path d="M154.705 171.754C154.705 171.754 141.201 178.873 136.943 170.956C133.587 164.727 136.943 157.608 136.943 157.608" fill="#F7528A"/>
<path d="M143.951 176.787C140.484 176.787 137.089 175.634 135.101 171.943C131.291 164.872 134.896 157.051 135.051 156.715C135.168 156.468 135.332 156.245 135.536 156.061C135.739 155.876 135.976 155.733 136.235 155.64C136.493 155.548 136.767 155.506 137.042 155.519C137.316 155.532 137.585 155.598 137.834 155.715C138.082 155.831 138.306 155.996 138.491 156.198C138.676 156.401 138.819 156.638 138.912 156.895C139.005 157.153 139.046 157.426 139.034 157.7C139.021 157.974 138.954 158.242 138.837 158.49C138.811 158.545 135.985 164.766 138.787 169.966C141.966 175.87 153.616 169.966 153.733 169.906C154.224 169.647 154.796 169.594 155.326 169.757C155.588 169.838 155.832 169.969 156.044 170.144C156.255 170.319 156.43 170.533 156.558 170.775C156.686 171.017 156.765 171.282 156.791 171.555C156.816 171.827 156.788 172.102 156.707 172.364C156.626 172.625 156.494 172.868 156.319 173.079C156.144 173.29 155.928 173.464 155.686 173.592C155.297 173.799 149.531 176.787 143.951 176.787Z" fill="#000072"/>
<path d="M107.907 97.5541C106.06 98.8302 103.759 96.7336 104.904 94.8056C107.413 90.5784 111.272 86.3008 116.794 85.6363C126.784 84.437 124.114 90.5771 118.786 92.1301C115.669 93.0362 111.592 95.012 107.907 97.5541Z" fill="#000072"/>
<path d="M211.479 97.5541C213.326 98.8302 215.626 96.7336 214.482 94.8056C211.973 90.5784 208.114 86.3008 202.592 85.6363C192.602 84.437 195.272 90.5771 200.6 92.1301C203.714 93.0362 207.79 95.012 211.479 97.5541Z" fill="#000072"/>
<path d="M147.808 35.5437C146.41 25.9704 148.276 12.0176 164.559 3.59081C173.765 -1.17255 181.523 12.2743 172.613 17.5675C172.438 17.6707 172.259 17.7718 172.074 17.8708C165.53 21.3681 157.545 27.3308 156.275 33.8347" fill="#B3C2D1"/>
<path d="M147.485 35.5903C146.291 27.4202 146.903 12.3599 164.409 3.30263C169.413 0.711419 173.783 3.27872 175.726 6.75843C177.612 10.1362 177.493 15.0468 172.779 17.8469C172.601 17.9543 172.417 18.0579 172.228 18.1578C168.939 19.9196 158.093 26.2473 156.596 33.8963L155.955 33.7705C157.503 25.842 168.565 19.3735 171.92 17.5814C172.1 17.4845 172.276 17.385 172.445 17.2856C176.785 14.707 176.892 10.184 175.156 7.07305C173.361 3.85762 169.326 1.4879 164.71 3.87776C147.563 12.7501 146.962 27.4944 148.131 35.4946L147.485 35.5903Z" fill="#000072"/>
<g opacity="0.5">
<path d="M164.559 8.80604C169.831 6.07765 174.621 9.32454 176.084 13.5883C178.323 7.59412 171.908 -0.207209 164.559 3.59592C149.634 11.3155 146.824 23.6788 147.535 33.0608C148.195 24.6629 152.272 15.1601 164.559 8.80604Z" fill="white"/>
</g>
<path d="M147.805 37.6253C147.304 37.6248 146.819 37.4444 146.44 37.117C146.06 36.7896 145.812 36.337 145.739 35.842C144.477 27.2088 145.122 11.3016 163.596 1.73714C169.375 -1.25428 174.848 1.56724 177.267 5.89894C179.627 10.1249 179.153 16.104 173.682 19.3546C173.478 19.4754 173.268 19.5929 173.051 19.707C166.639 23.1401 159.399 28.758 158.326 34.2274C158.22 34.7699 157.902 35.2483 157.443 35.5572C156.983 35.8662 156.419 35.9804 155.875 35.8747C155.331 35.7691 154.851 35.4523 154.541 34.9939C154.232 34.5356 154.117 33.9733 154.223 33.4308C155.874 24.9763 166.566 18.4447 171.087 16.0285C171.247 15.9429 171.397 15.8586 171.544 15.7768C175.119 13.6524 174.894 10.2218 173.615 7.93013C172.175 5.3515 169.113 3.58081 165.522 5.44085C149.344 13.8123 148.775 27.7059 149.873 35.243C149.912 35.5138 149.898 35.7897 149.831 36.055C149.763 36.3203 149.644 36.5698 149.48 36.7892C149.316 37.0086 149.11 37.1935 148.874 37.3335C148.639 37.4736 148.377 37.5658 148.106 37.6051C148.006 37.6191 147.906 37.6259 147.805 37.6253Z" fill="#000072"/>
<path d="M156.516 33.7138C160.236 27.2956 168.001 19.8 181.797 22.4479C189.596 23.9442 187.855 35.6972 179.979 34.6552C179.825 34.635 179.67 34.6111 179.511 34.5822C173.914 33.5855 166.278 33.3866 162.418 36.6939" fill="#B3C2D1"/>
<path d="M162.631 36.9431L162.206 36.4485C166.938 32.395 176.692 33.7516 179.569 34.2638C179.723 34.2915 179.873 34.3154 180.022 34.3355C183.808 34.8289 185.996 32.1961 186.428 29.5457C186.875 26.7997 185.597 23.505 181.735 22.7663C167.255 19.9914 159.901 28.5352 156.799 33.8774L156.234 33.5515C159.418 28.0595 166.98 19.2715 181.853 22.1283C186.144 22.95 187.564 26.6034 187.068 29.6502C186.587 32.6076 184.148 35.5424 179.931 34.9799C179.774 34.9597 179.612 34.9346 179.449 34.9056C176.649 34.4048 167.145 33.0758 162.631 36.9431Z" fill="#000072"/>
<g opacity="0.5">
<path d="M181.797 22.448C168.001 19.8051 160.236 27.2994 156.516 33.7139L157.072 33.9945C161.381 28.7643 168.613 24.201 179.838 26.3555C183.675 27.0918 185.198 30.3097 184.822 33.2671C188.108 30.2631 187.563 23.5542 181.797 22.448Z" fill="white"/>
</g>
<path d="M162.419 38.7805C161.992 38.7807 161.575 38.6505 161.225 38.4075C160.874 38.1645 160.607 37.8202 160.458 37.4211C160.31 37.022 160.288 36.5871 160.394 36.175C160.501 35.7629 160.732 35.3932 161.056 35.1158C166.23 30.6796 175.948 31.8324 179.88 32.5334C180.006 32.556 180.132 32.5762 180.258 32.5925C183.07 32.9613 184.405 31.0307 184.693 29.2638C184.935 27.7725 184.516 25.0907 181.412 24.4929C168.006 21.9244 161.198 29.8201 158.336 34.7571C158.2 34.9963 158.018 35.2063 157.8 35.3749C157.582 35.5435 157.332 35.6674 157.066 35.7394C156.8 35.8115 156.522 35.8303 156.248 35.7947C155.975 35.7592 155.711 35.67 155.472 35.5322C155.234 35.3945 155.024 35.2111 154.857 34.9924C154.69 34.7737 154.568 34.5241 154.497 34.2581C154.427 33.9921 154.411 33.7148 154.448 33.4424C154.486 33.1699 154.578 32.9076 154.718 32.6706C157.469 27.9248 165.655 17.2252 182.202 20.4016C187.405 21.3983 189.471 25.9515 188.824 29.9321C188.193 33.8208 184.86 37.405 179.715 36.7279C179.531 36.7027 179.337 36.6738 179.153 36.6398C173.771 35.6808 166.911 35.6091 163.789 38.2758C163.409 38.6036 162.922 38.7829 162.419 38.7805Z" fill="#000072"/>
<path d="M183.211 127.103C183.211 127.103 186.397 145.981 209.841 140.286C235.903 133.949 222.335 108.982 233.354 104.195C237.153 102.544 239.523 104.633 241.432 107.32C242.029 108.163 243.325 108.453 244.461 108.392C247.218 108.253 249.347 110.164 250.319 114.878C253.243 129.044 243.838 166.055 212.629 175.323C193.738 180.935 157.79 182.941 136.957 157.609" fill="#B3C2D1"/>
<g opacity="0.3">
<path d="M250.789 121.865C250.24 138.674 239.545 167.323 212.615 175.321C193.722 180.932 157.775 182.938 136.943 157.606L139.55 150.369C162.811 173.273 197.62 167.636 214.585 162.598C235.475 156.393 246.599 137.761 250.789 121.865Z" fill="#000072"/>
</g>
<path d="M184.788 135.535C183.969 134.637 183.095 133.791 182.17 133.002C181.226 132.255 180.221 131.585 179.168 131.001C178.099 130.441 176.978 129.986 175.822 129.64C174.652 129.302 173.446 129.104 172.229 129.05C170.992 128.995 169.753 129.096 168.541 129.35C167.278 129.612 166.045 130.002 164.861 130.514C162.398 131.56 160.179 133.102 158.342 135.044C158.315 135.073 158.283 135.096 158.247 135.112C158.211 135.128 158.172 135.137 158.132 135.138C158.093 135.139 158.053 135.132 158.016 135.118C157.979 135.104 157.946 135.083 157.917 135.056C157.87 135.011 157.839 134.952 157.827 134.888C157.816 134.824 157.826 134.758 157.855 134.699C159.155 132.183 161.204 129.966 163.661 128.335C164.278 127.928 164.917 127.554 165.574 127.214C165.901 127.042 166.234 126.882 166.571 126.723C166.908 126.565 167.274 126.444 167.629 126.304C169.059 125.792 170.569 125.387 172.117 125.297C175.245 125.03 178.388 125.608 181.215 126.972C182.619 127.664 183.93 128.53 185.116 129.55C186.279 130.584 187.298 131.769 188.145 133.074C188.431 133.513 188.541 134.043 188.453 134.559C188.365 135.076 188.086 135.54 187.67 135.861C187.255 136.181 186.734 136.334 186.211 136.289C185.687 136.244 185.2 136.005 184.846 135.618L184.788 135.535Z" fill="#000072"/>
<path d="M187.417 180.902C169.621 180.902 149.223 175.825 135.326 158.929C134.98 158.501 134.817 157.954 134.873 157.407C134.929 156.86 135.2 156.357 135.627 156.008C136.053 155.66 136.601 155.493 137.15 155.545C137.699 155.597 138.205 155.864 138.558 156.286C158.833 180.937 194.275 178.595 212.018 173.325C241.992 164.422 251.007 128.616 248.258 115.297C247.235 110.335 245.217 110.44 244.553 110.472C242.459 110.574 240.654 109.843 239.715 108.521C237.534 105.439 236.036 105.3 234.187 106.104C231.14 107.428 230.588 111.103 229.941 116.989C228.96 125.901 227.617 138.106 210.333 142.31C196.235 145.735 188.828 140.741 185.092 135.947C184.752 135.51 184.6 134.956 184.67 134.408C184.739 133.86 185.024 133.361 185.462 133.023C185.9 132.684 186.455 132.532 187.005 132.602C187.555 132.671 188.055 132.955 188.395 133.392C192.72 138.949 199.767 140.588 209.345 138.26C223.783 134.749 224.803 125.489 225.787 116.535C226.46 110.417 227.096 104.639 232.518 102.284C238.559 99.6571 242 104.519 243.132 106.116C243.212 106.18 243.687 106.341 244.343 106.309C246.678 106.191 250.834 107.091 252.355 114.457C253.831 121.619 252.481 134.718 246.144 147.841C241.073 158.333 231.244 171.964 213.213 177.319C206.494 179.314 197.363 180.902 187.417 180.902Z" fill="#000072"/>
<path d="M123.719 158.753C125.828 158.535 127.874 158.261 129.696 157.726C131.46 157.252 133.122 156.462 134.603 155.397C134.8 155.271 134.907 155.131 135.071 155.008C135.23 154.889 135.376 154.753 135.505 154.602C135.632 154.45 135.772 154.307 135.913 154.162L136.268 153.659C136.755 152.925 137.141 152.13 137.417 151.295C138.004 149.533 138.288 147.445 138.427 145.355V145.272C138.438 145.101 138.505 144.939 138.619 144.811C138.732 144.682 138.885 144.595 139.054 144.563C139.222 144.53 139.397 144.555 139.55 144.632C139.703 144.709 139.826 144.834 139.9 144.989C140.953 147.185 141.373 149.63 141.114 152.05C140.971 153.356 140.593 154.625 139.998 155.797C139.415 157.024 138.427 158.102 137.388 158.969C135.375 160.575 132.922 161.536 130.351 161.727C129.126 161.818 127.894 161.739 126.691 161.493C125.498 161.259 124.353 160.827 123.304 160.214C123.163 160.129 123.052 160.003 122.987 159.852C122.922 159.701 122.906 159.534 122.942 159.374C122.977 159.214 123.062 159.068 123.184 158.959C123.307 158.849 123.461 158.781 123.624 158.763L123.719 158.753Z" fill="#000072"/>
<path d="M169.887 145.909C170.144 144.927 170.517 143.978 170.998 143.084C171.223 142.623 171.503 142.203 171.772 141.757C172.069 141.341 172.361 140.911 172.682 140.499C174.015 138.827 175.686 137.455 177.586 136.471C178.062 136.204 178.559 135.976 179.073 135.791C179.578 135.596 180.083 135.353 180.627 135.255L182.233 134.877C182.773 134.799 183.319 134.775 183.863 134.725C184.135 134.706 184.409 134.677 184.682 134.667C184.954 134.657 185.221 134.696 185.491 134.708C186.028 134.74 186.566 134.786 187.102 134.843C188.16 134.997 189.181 135.295 190.189 135.598C190.674 135.743 191.089 136.06 191.356 136.488C191.623 136.917 191.724 137.428 191.64 137.926C191.556 138.423 191.293 138.873 190.9 139.191C190.507 139.509 190.011 139.673 189.505 139.652L189.16 139.638C188.276 139.601 187.413 139.435 186.56 139.35C185.712 139.35 184.856 139.168 184.027 139.243L182.765 139.26L181.524 139.395C181.1 139.415 180.704 139.535 180.291 139.613C179.874 139.679 179.464 139.784 179.067 139.926C177.392 140.437 175.819 141.234 174.417 142.282C172.917 143.385 171.575 144.688 170.428 146.153L170.41 146.176C170.367 146.23 170.307 146.268 170.24 146.283C170.172 146.298 170.101 146.289 170.039 146.259C169.977 146.228 169.928 146.177 169.899 146.114C169.87 146.051 169.864 145.981 169.881 145.914L169.887 145.909Z" fill="#000072"/>
<path d="M124.943 139.437C133.294 138.737 139.402 130.319 138.585 120.636C137.768 110.952 130.335 103.671 121.984 104.372C113.632 105.072 107.524 113.49 108.341 123.173C109.159 132.856 116.591 140.138 124.943 139.437Z" fill="#000072"/>
<path d="M118.223 124.629C120.469 124.552 122.196 121.775 122.081 118.426C121.965 115.078 120.051 112.425 117.805 112.502C115.559 112.579 113.832 115.357 113.948 118.705C114.063 122.054 115.977 124.707 118.223 124.629Z" fill="white"/>
<path d="M131.28 129.388C132.394 129.261 133.143 127.806 132.952 126.139C132.76 124.473 131.702 123.224 130.587 123.352C129.472 123.479 128.723 124.933 128.914 126.6C129.106 128.267 130.165 129.515 131.28 129.388Z" fill="white"/>
<path d="M210.079 109.896C208.529 110.659 207.025 111.511 205.573 112.447C204.176 113.354 202.856 114.372 201.625 115.491C201.008 116.026 200.469 116.624 199.905 117.2L199.139 118.122C199.012 118.279 198.874 118.421 198.76 118.583L198.417 119.07C197.441 120.329 196.745 121.769 196.063 123.223L192.556 120.455C192.696 120.363 192.784 120.314 192.88 120.256C192.976 120.198 193.072 120.145 193.164 120.097C193.348 119.999 193.535 119.901 193.718 119.817C194.084 119.634 194.453 119.481 194.822 119.325C195.559 119.029 196.313 118.78 197.08 118.578C198.603 118.173 200.174 117.973 201.75 117.982C203.316 118 204.882 118.182 206.356 118.646C207.847 119.035 209.224 119.736 210.491 120.511C210.648 120.608 210.767 120.756 210.828 120.929C210.889 121.103 210.889 121.292 210.827 121.465C210.765 121.639 210.646 121.786 210.489 121.882C210.332 121.979 210.146 122.019 209.963 121.995L209.866 121.983C209.173 121.891 208.518 121.731 207.847 121.654C207.175 121.577 206.527 121.496 205.868 121.496C204.581 121.444 203.292 121.528 202.022 121.747C200.777 121.944 199.555 122.272 198.379 122.725C197.792 122.944 197.224 123.203 196.669 123.469C196.396 123.61 196.12 123.747 195.864 123.899C195.73 123.972 195.611 124.05 195.485 124.126C195.421 124.164 195.359 124.2 195.311 124.235L195.185 124.317L195.138 124.349C194.723 124.624 194.232 124.76 193.734 124.737C193.236 124.713 192.759 124.532 192.373 124.219C191.986 123.906 191.71 123.478 191.585 122.997C191.46 122.516 191.492 122.008 191.677 121.547C192.423 119.688 193.291 117.835 194.554 116.245C195.119 115.402 195.857 114.704 196.535 113.961C197.292 113.297 198.015 112.604 198.848 112.053C200.45 110.9 202.211 109.986 204.076 109.339C205.93 108.721 207.796 108.317 209.794 108.324C209.977 108.325 210.154 108.386 210.297 108.499C210.441 108.613 210.541 108.771 210.583 108.948C210.625 109.125 210.606 109.311 210.528 109.476C210.451 109.641 210.32 109.776 210.156 109.857L210.079 109.896Z" fill="#000072"/>
<path d="M250.44 192.021C252.309 186.804 250.01 181.216 245.304 179.54C240.598 177.864 235.269 180.733 233.4 185.95C231.531 191.167 233.83 196.754 238.536 198.431C243.241 200.107 248.571 197.237 250.44 192.021Z" fill="white"/>
<path d="M242.925 173.522C243.042 171.938 241.977 170.57 240.548 170.465C239.119 170.361 237.866 171.56 237.749 173.144C237.633 174.728 238.697 176.097 240.127 176.201C241.556 176.305 242.809 175.106 242.925 173.522Z" fill="white"/>
<path d="M250.404 175.004C250.799 173.465 249.994 171.931 248.606 171.576C247.217 171.222 245.772 172.182 245.377 173.72C244.982 175.259 245.787 176.793 247.175 177.148C248.564 177.502 250.009 176.542 250.404 175.004Z" fill="white"/>
<path d="M255.576 179.928C256.066 178.746 255.599 177.432 254.532 176.992C253.466 176.553 252.205 177.155 251.715 178.337C251.226 179.519 251.693 180.833 252.759 181.273C253.825 181.712 255.086 181.11 255.576 179.928Z" fill="white"/>
<path d="M130.064 300.229C130.628 295.312 127.489 290.917 123.055 290.411C118.62 289.906 114.568 293.482 114.004 298.399C113.441 303.315 116.579 307.711 121.014 308.216C125.449 308.722 129.501 305.146 130.064 300.229Z" fill="white"/>
<path d="M112.627 292.435C114.154 291.962 114.965 290.207 114.439 288.514C113.912 286.821 112.248 285.832 110.72 286.304C109.193 286.777 108.382 288.532 108.908 290.225C109.435 291.917 111.1 292.907 112.627 292.435Z" fill="white"/>
<path d="M119.785 287.324C121.72 287.085 123.073 285.152 122.807 283.007C122.54 280.862 120.755 279.316 118.82 279.555C116.884 279.795 115.531 281.727 115.798 283.872C116.064 286.018 117.849 287.563 119.785 287.324Z" fill="white"/>
<path d="M130.039 285.454C130.067 283.876 128.936 282.576 127.512 282.55C126.089 282.525 124.911 283.783 124.883 285.362C124.854 286.94 125.986 288.24 127.409 288.265C128.833 288.291 130.01 287.032 130.039 285.454Z" fill="white"/>
<path d="M232.488 295.716C232.953 290.791 230.492 286.532 226.991 286.203C223.49 285.874 220.275 289.6 219.809 294.525C219.344 299.45 221.805 303.709 225.306 304.037C228.807 304.366 232.022 300.64 232.488 295.716Z" fill="white"/>
<path d="M220.431 286.594C221.718 286.564 222.725 285.05 222.682 283.213C222.639 281.376 221.562 279.911 220.275 279.941C218.989 279.971 217.981 281.485 218.024 283.322C218.067 285.159 219.145 286.624 220.431 286.594Z" fill="white"/>
<path d="M230.224 279.132C230.286 276.877 229.057 275.015 227.478 274.971C225.899 274.928 224.569 276.72 224.506 278.975C224.444 281.229 225.673 283.092 227.252 283.136C228.831 283.179 230.162 281.387 230.224 279.132Z" fill="white"/>
<path d="M235.2 282.941C235.308 281.36 234.491 280.018 233.377 279.943C232.262 279.867 231.271 281.087 231.163 282.668C231.056 284.248 231.873 285.59 232.987 285.666C234.102 285.741 235.093 284.521 235.2 282.941Z" fill="white"/>
<path d="M126.368 275.202C124.384 274.366 122.374 273.716 120.364 273.431C119.377 273.3 118.379 273.262 117.385 273.315C116.416 273.379 115.457 273.552 114.527 273.831C110.828 274.952 107.818 278.075 106.09 281.955C105.873 282.438 105.673 282.93 105.476 283.465L105.35 283.794L105.21 284.202C105.122 284.454 105.042 284.706 104.965 284.97C104.653 286.016 104.408 287.081 104.231 288.158C103.854 290.335 103.73 292.549 103.862 294.755C104.129 299.241 105.184 303.734 106.797 308.045C106.826 308.119 106.823 308.201 106.791 308.274C106.759 308.346 106.7 308.403 106.626 308.432C106.559 308.457 106.486 308.458 106.419 308.435C106.352 308.412 106.295 308.366 106.258 308.306C105.094 306.26 104.107 304.119 103.308 301.906C102.484 299.677 101.865 297.378 101.457 295.038C101.047 292.642 100.933 290.206 101.117 287.783C101.206 286.56 101.373 285.344 101.615 284.142C101.677 283.839 101.745 283.536 101.817 283.233L101.922 282.808L102.059 282.311C102.216 281.743 102.412 281.147 102.625 280.549C103.488 278.199 104.731 275.908 106.494 273.951C108.257 271.994 110.533 270.385 113.115 269.532C115.69 268.651 118.461 268.525 121.038 268.93C123.615 269.336 126.034 270.263 128.218 271.447C128.691 271.702 129.047 272.129 129.213 272.638C129.379 273.148 129.342 273.702 129.109 274.185C128.877 274.668 128.467 275.043 127.964 275.233C127.461 275.422 126.905 275.412 126.41 275.203L126.368 275.202Z" fill="#000072"/>
<path d="M212.432 302.06C211.306 300.209 210.673 298.127 210.184 296.05C209.712 293.956 209.419 291.827 209.308 289.684C209.095 285.396 209.435 281.021 210.757 276.757C211.434 274.636 212.339 272.526 213.66 270.59C214.981 268.655 216.705 266.894 218.834 265.655C220.945 264.422 223.323 263.715 225.766 263.595C228.148 263.455 230.461 263.8 232.641 264.392C233.159 264.531 233.603 264.861 233.883 265.317C234.163 265.772 234.257 266.317 234.145 266.84C234.033 267.362 233.725 267.822 233.283 268.124C232.842 268.426 232.301 268.548 231.772 268.464L231.68 268.45C229.774 268.155 227.894 267.979 226.1 268.121C225.658 268.183 225.217 268.221 224.774 268.292L223.489 268.583L222.262 269.016C221.884 269.214 221.484 269.394 221.092 269.575C218.054 271.249 215.769 274.405 214.312 278.007C212.856 281.608 212.08 285.643 211.802 289.687C211.662 291.72 211.662 293.761 211.802 295.795C211.945 297.834 212.273 299.865 212.967 301.782V301.797C212.989 301.866 212.985 301.94 212.956 302.006C212.927 302.072 212.875 302.126 212.809 302.157C212.744 302.187 212.669 302.193 212.6 302.173C212.53 302.154 212.47 302.109 212.431 302.049L212.432 302.06Z" fill="#000072"/>
<g opacity="0.3">
<path d="M223.739 320.222C218.198 320.455 173.704 310.259 133.88 319.499C132.585 319.798 138.358 308.047 138.358 308.047C153.908 306.056 177.682 309.35 194.093 308.228C205.13 307.473 212.703 301.935 212.703 301.935C212.703 301.935 217.796 312.466 226.122 312.575C236.662 312.711 241.457 298.965 242.862 286.128C244.644 301.967 236.755 319.686 223.739 320.222Z" fill="#000072"/>
</g>
</svg>
