<svg width="318" height="382" viewBox="0 0 318 382" fill="none" xmlns="http://www.w3.org/2000/svg">
<g clip-path="url(#clip0_440_11482)">
<g opacity="0.2">
<path d="M142.913 382C205.318 382 255.907 372.815 255.907 361.486C255.907 350.156 205.318 340.971 142.913 340.971C80.5088 340.971 29.9199 350.156 29.9199 361.486C29.9199 372.815 80.5088 382 142.913 382Z" fill="#1B1D21"/>
</g>
<path d="M214.306 186.494C209.684 192.842 203.393 198.861 203.393 198.861L196.855 159.76C196.855 159.76 204.839 163.169 211.265 167.403C214.665 169.642 217.632 172.112 218.735 174.434C220.07 177.232 217.616 181.949 214.306 186.494Z" fill="white"/>
<path d="M226.871 212.388C223.841 220.343 211.708 230.759 211.708 230.759L203.388 198.861C203.388 198.861 210.813 199.145 217.447 201.049C221.66 202.255 225.551 204.114 227.035 206.957C227.822 208.461 227.643 210.343 226.871 212.388Z" fill="white"/>
<path d="M203.396 201.835C202.69 201.835 202.007 201.585 201.469 201.13C200.93 200.675 200.571 200.044 200.455 199.349L193.919 160.252C193.831 159.725 193.886 159.184 194.08 158.686C194.273 158.188 194.597 157.751 195.018 157.421C195.438 157.091 195.94 156.881 196.471 156.811C197.001 156.741 197.541 156.816 198.033 157.026C201.325 158.431 217.927 165.811 221.429 173.155C223.339 177.16 221.168 182.838 214.593 191.021C211.747 194.525 208.699 197.86 205.465 201.011C204.908 201.542 204.166 201.837 203.396 201.835ZM200.729 164.843L205.366 192.566C206.782 191.036 208.41 189.197 209.968 187.254C217.146 178.308 216.051 175.737 216.04 175.712C214.566 172.622 207.32 168.136 200.729 164.843Z" fill="#1B1D21"/>
<path d="M211.702 233.734C211.402 233.734 211.104 233.688 210.818 233.598C210.335 233.447 209.898 233.176 209.549 232.81C209.199 232.444 208.949 231.996 208.822 231.506L200.515 199.607C200.398 199.158 200.388 198.687 200.486 198.234C200.583 197.78 200.786 197.355 201.078 196.994C201.371 196.634 201.744 196.346 202.167 196.154C202.589 195.962 203.051 195.869 203.516 195.885C207.112 196.023 225.276 197.145 229.687 205.587C231.927 209.872 229.765 215.746 223.079 223.549C218.668 228.696 213.855 232.846 213.652 233.02C213.109 233.484 212.417 233.737 211.702 233.734ZM207.332 202.142L213.343 225.222C220.129 218.638 225.77 210.963 224.395 208.337C222.658 205.01 214.387 202.921 207.332 202.142Z" fill="#1B1D21"/>
<g opacity="0.25">
<path d="M203.388 198.861L196.85 159.76C196.85 159.76 204.834 163.169 211.26 167.403C210.25 171.687 209.553 179.278 214.301 186.494C209.684 192.842 203.388 198.861 203.388 198.861Z" fill="#183C10"/>
</g>
<g opacity="0.25">
<path d="M226.871 212.388C223.841 220.343 211.708 230.759 211.708 230.759L203.388 198.861C203.388 198.861 210.813 199.145 217.447 201.049C217.229 206.696 218.825 212.783 226.871 212.388Z" fill="#183C10"/>
</g>
<path d="M298.151 247.546L275.467 249.877L280.812 238.925L283.481 233.456C284.882 230.576 288.968 230.495 290.488 233.315L292.985 237.958L298.151 247.546Z" fill="white"/>
<path d="M271.209 252.992L242.433 252.59L251.379 238.811L255.442 232.554C257.143 229.934 261.079 230.239 262.345 233.089L264.618 238.193L271.209 252.992Z" fill="white"/>
<path d="M242.433 252.59L208.954 246.177L223.812 228.743L225.772 226.44C226.213 225.924 226.779 225.531 227.416 225.298C228.054 225.066 228.74 225.001 229.41 225.111C230.08 225.221 230.709 225.502 231.238 225.926C231.767 226.351 232.178 226.904 232.429 227.533L235.784 235.933L242.433 252.59Z" fill="white"/>
<path d="M275.464 252.851C274.958 252.851 274.46 252.723 274.017 252.478C273.574 252.233 273.201 251.88 272.933 251.451C272.665 251.023 272.51 250.533 272.484 250.028C272.458 249.524 272.561 249.021 272.784 248.567L280.798 232.145C281.355 231.002 282.218 230.034 283.29 229.349C284.363 228.664 285.605 228.287 286.878 228.261C288.152 228.235 289.407 228.56 290.507 229.201C291.607 229.842 292.509 230.774 293.112 231.893L300.781 246.124C301.016 246.555 301.14 247.038 301.143 247.529C301.146 248.02 301.027 248.505 300.796 248.939C300.566 249.373 300.231 249.743 299.823 250.017C299.414 250.291 298.944 250.459 298.454 250.507L275.764 252.84C275.667 252.846 275.565 252.851 275.464 252.851ZM287.021 234.221H286.999C286.823 234.22 286.65 234.27 286.501 234.365C286.352 234.46 286.233 234.596 286.16 234.756L280.494 246.367L293.418 245.039L287.863 234.722C287.785 234.568 287.664 234.438 287.515 234.35C287.366 234.261 287.194 234.216 287.021 234.221Z" fill="#1B1D21"/>
<path d="M271.211 255.969H271.169L242.399 255.567C241.866 255.559 241.345 255.41 240.89 255.133C240.435 254.857 240.062 254.463 239.811 253.994C239.559 253.525 239.438 252.998 239.461 252.466C239.483 251.935 239.648 251.419 239.937 250.972L252.941 230.937C253.619 229.893 254.566 229.051 255.684 228.5C256.801 227.949 258.047 227.71 259.289 227.807C260.531 227.904 261.724 228.335 262.742 229.053C263.759 229.771 264.564 230.75 265.07 231.887L273.935 251.788C274.137 252.241 274.222 252.737 274.183 253.231C274.143 253.725 273.981 254.202 273.71 254.618C273.44 255.034 273.069 255.375 272.633 255.612C272.196 255.848 271.707 255.972 271.211 255.972V255.969ZM247.87 249.69L266.592 249.952L259.621 234.301C259.551 234.145 259.439 234.01 259.298 233.911C259.157 233.812 258.992 233.754 258.821 233.741C258.649 233.728 258.477 233.761 258.323 233.838C258.169 233.914 258.039 234.031 257.946 234.175L247.87 249.69Z" fill="#1B1D21"/>
<path d="M242.435 255.567C242.246 255.567 242.057 255.549 241.872 255.514L208.391 249.101C207.879 249.003 207.402 248.773 207.007 248.433C206.612 248.094 206.313 247.657 206.14 247.166C205.967 246.675 205.926 246.147 206.021 245.636C206.116 245.124 206.344 244.646 206.682 244.25L223.503 224.519C224.276 223.612 225.271 222.919 226.392 222.509C227.512 222.099 228.72 221.985 229.897 222.178C231.075 222.371 232.182 222.865 233.112 223.612C234.042 224.359 234.762 225.333 235.203 226.44L245.207 251.492C245.387 251.943 245.454 252.432 245.401 252.915C245.349 253.398 245.178 253.861 244.905 254.263C244.632 254.665 244.264 254.995 243.834 255.223C243.404 255.45 242.924 255.569 242.437 255.569L242.435 255.567ZM214.533 244.218L237.637 248.644L229.651 228.641C229.592 228.487 229.493 228.351 229.364 228.248C229.236 228.145 229.082 228.078 228.918 228.054C228.756 228.023 228.587 228.037 228.432 228.093C228.276 228.15 228.139 228.248 228.035 228.376L214.533 244.218Z" fill="#1B1D21"/>
<g opacity="0.25">
<path d="M235.784 235.938L242.433 252.59L208.954 246.176L223.812 228.743C224.774 232.01 227.689 238.104 235.784 235.938Z" fill="#183C10"/>
</g>
<g opacity="0.25">
<path d="M271.209 252.992L242.433 252.59L251.379 238.811C255.798 239.391 260.596 239.458 264.619 238.192L271.209 252.992Z" fill="#183C10"/>
</g>
<g opacity="0.25">
<path d="M298.151 247.546L275.467 249.877L280.812 238.924C284.166 239.698 288.288 239.728 292.985 237.958L298.151 247.546Z" fill="#183C10"/>
</g>
<path d="M199.601 235.424L200.358 291.685L200.622 311.829C287.451 326.641 315.457 239.003 315.866 237.706V237.699C315.072 238.012 314.278 238.329 313.478 238.617C283.43 249.853 251.945 247.753 229.719 243.588C211.57 240.188 199.601 235.424 199.601 235.424Z" fill="#4071F0"/>
<g opacity="0.6">
<path d="M199.601 235.424L199.704 243.471C203.326 244.79 213.907 248.397 228.449 251.12C250.669 255.284 282.155 257.384 312.208 246.148C312.36 246.097 312.506 246.038 312.658 245.979C314.782 241.089 315.787 237.948 315.86 237.706V237.699C315.066 238.012 314.272 238.329 313.471 238.617C283.424 249.853 251.939 247.753 229.712 243.588C211.57 240.188 199.601 235.424 199.601 235.424Z" fill="white"/>
</g>
<path d="M218.969 316.437C212.367 316.419 205.778 315.843 199.274 314.716C198.586 314.598 197.961 314.244 197.508 313.714C197.055 313.185 196.803 312.514 196.794 311.817L195.784 235.414C195.778 234.925 195.892 234.441 196.118 234.007C196.343 233.572 196.672 233.2 197.076 232.923C197.48 232.645 197.946 232.472 198.434 232.417C198.921 232.362 199.414 232.428 199.87 232.609C200.02 232.669 215.181 238.63 236.784 241.851C256.597 244.803 286.064 245.992 313.922 234.886C314.384 234.704 314.885 234.64 315.378 234.7C315.871 234.76 316.342 234.942 316.746 235.23C317.151 235.517 317.478 235.901 317.696 236.347C317.915 236.792 318.018 237.285 317.998 237.78C317.986 238.044 317.941 238.306 317.862 238.558C317.562 239.509 310.308 262.107 292.038 282.738C281.36 294.795 269.067 303.759 255.498 309.385C244.167 314.079 231.932 316.437 218.969 316.437ZM202.723 309.241C236.623 314.331 265.158 304.097 287.569 278.79C299.689 265.098 306.716 250.564 309.964 242.678C282.72 251.856 254.874 250.584 235.736 247.719C220.027 245.364 207.835 241.687 201.797 239.64L202.723 309.241Z" fill="#1B1D21"/>
<path d="M199.508 291.638L199.774 311.782C286.603 326.595 314.614 238.956 315.017 237.655C314.273 238.818 271.799 304.198 199.508 291.638Z" fill="#FFDF46"/>
<path d="M218.967 315.692C212.408 315.675 205.861 315.102 199.399 313.981C198.883 313.893 198.415 313.628 198.075 313.232C197.736 312.836 197.546 312.333 197.539 311.811L197.274 291.667C197.27 291.339 197.338 291.014 197.473 290.716C197.609 290.417 197.809 290.152 198.059 289.939C198.31 289.726 198.604 289.571 198.921 289.485C199.238 289.399 199.57 289.383 199.894 289.439C229.293 294.545 257.167 287.337 282.745 268.018C302.176 253.338 312.698 237.145 313.136 236.46C313.428 236.004 313.876 235.669 314.397 235.519C314.917 235.368 315.475 235.411 315.966 235.64C316.457 235.869 316.849 236.269 317.067 236.764C317.285 237.26 317.315 237.817 317.152 238.334C316.854 239.28 309.647 261.731 291.48 282.245C280.875 294.216 268.677 303.116 255.214 308.697C243.969 313.353 231.833 315.692 218.967 315.692ZM201.986 309.881C236.424 315.236 265.401 304.946 288.127 279.283C296.459 269.875 302.393 260.068 306.365 252.266C300.028 259.357 293.021 265.822 285.443 271.572C259.98 290.812 231.106 298.627 201.78 294.266L201.986 309.881Z" fill="#1B1D21"/>
<path d="M287.96 285.034C287.822 285.034 287.683 285.021 287.547 284.995C287.259 284.941 286.983 284.832 286.737 284.672C286.491 284.512 286.279 284.305 286.112 284.063C285.946 283.822 285.83 283.549 285.769 283.263C285.708 282.976 285.705 282.68 285.758 282.392C287.502 273.067 286.685 266.346 286.676 266.279C286.601 265.692 286.762 265.099 287.125 264.63C287.487 264.162 288.021 263.856 288.61 263.781C289.198 263.705 289.792 263.866 290.262 264.228C290.731 264.59 291.037 265.123 291.113 265.71C291.152 266.01 292.038 273.145 290.156 283.211C290.06 283.722 289.788 284.185 289.387 284.518C288.987 284.851 288.482 285.033 287.96 285.034Z" fill="#1B1D21"/>
<path d="M261.084 305.738C260.695 305.737 260.313 305.636 259.976 305.443C259.638 305.25 259.357 304.973 259.159 304.639C258.962 304.305 258.855 303.925 258.849 303.537C258.844 303.149 258.94 302.766 259.127 302.426C264.599 292.533 263.218 281.956 263.204 281.851C263.121 281.265 263.276 280.67 263.632 280.197C263.989 279.725 264.52 279.413 265.107 279.33C265.694 279.248 266.291 279.402 266.764 279.758C267.238 280.114 267.55 280.644 267.633 281.23C267.702 281.719 269.26 293.346 263.044 304.583C262.85 304.933 262.567 305.225 262.222 305.428C261.877 305.631 261.484 305.738 261.084 305.738Z" fill="#1B1D21"/>
<path d="M232.138 314.828C231.75 314.828 231.369 314.727 231.032 314.535C230.695 314.344 230.414 314.068 230.216 313.735C230.018 313.402 229.91 313.024 229.903 312.637C229.896 312.25 229.989 311.868 230.175 311.528C234.812 303.026 236.098 291.03 236.108 290.91C236.177 290.327 236.472 289.795 236.931 289.428C237.39 289.061 237.975 288.889 238.559 288.949C239.144 289.009 239.682 289.297 240.056 289.749C240.43 290.202 240.61 290.783 240.559 291.367C240.504 291.893 239.17 304.362 234.101 313.662C233.909 314.015 233.625 314.309 233.28 314.514C232.934 314.719 232.54 314.828 232.138 314.828Z" fill="#1B1D21"/>
<g opacity="0.2">
<path d="M198.891 235.433L199.642 291.694L199.907 311.838C286.736 326.65 314.743 239.012 315.151 237.715V237.707C314.356 238.021 313.562 238.337 312.762 238.626C290.401 293.783 262.594 295.834 245.678 290.355C237.008 287.545 231.426 279.239 231.761 270.147C232.112 260.63 230.779 251.382 229.003 243.597C210.863 240.197 198.891 235.433 198.891 235.433Z" fill="#1B1D21"/>
</g>
<path d="M212.13 338.999C212.458 340.036 212.479 341.146 212.189 342.195C211.9 343.243 211.312 344.185 210.497 344.908L184.75 367.776C184.415 368.077 184.022 368.306 183.594 368.449C183.167 368.592 182.715 368.646 182.266 368.607C181.817 368.569 181.381 368.439 180.984 368.226C180.587 368.012 180.239 367.72 179.96 367.366C178.934 366.046 177.975 363.95 177.771 360.659L166.93 366.455C166.544 366.663 166.12 366.792 165.684 366.834C165.248 366.877 164.807 366.832 164.388 366.703C163.97 366.574 163.581 366.363 163.244 366.083C162.908 365.802 162.631 365.458 162.429 365.069C161.631 363.517 160.937 361.394 161.166 358.916L155.918 361.589C155.399 361.854 154.819 361.977 154.237 361.946C153.655 361.915 153.092 361.731 152.604 361.413C152.116 361.095 151.72 360.654 151.458 360.135C151.196 359.615 151.075 359.036 151.109 358.455C151.34 354.341 152.246 348.583 155.166 343.46L155.196 343.408C156.408 341.264 157.964 339.334 159.803 337.694C159.803 337.694 159.02 337.27 157.783 336.518C155.084 334.889 150.238 331.741 146.623 328.132L137.737 353.87C136.773 356.656 134.954 359.069 132.539 360.766C130.123 362.462 127.234 363.356 124.28 363.32C111.64 363.173 90.5159 363.28 80.9841 365.394C80.6661 365.466 80.3359 365.466 80.0181 365.393C79.7003 365.32 79.403 365.177 79.1483 364.973C78.8936 364.77 78.6881 364.512 78.5469 364.219C78.4057 363.926 78.3326 363.604 78.3329 363.279V360.174L66.5336 360.843C65.9547 360.875 65.3774 360.756 64.859 360.497C64.3407 360.238 63.8994 359.847 63.5789 359.365C63.2585 358.883 63.0701 358.325 63.0326 357.748C62.995 357.17 63.1095 356.593 63.3647 356.073C63.8811 355.014 64.5009 353.842 65.2458 352.616C69.8905 344.929 79.156 335.138 95.5798 337.221C95.5798 337.221 89.1689 330.165 83.167 318.158C77.6801 307.196 72.5443 292.093 72.9761 274.488C73.014 272.636 73.1251 270.753 73.2968 268.842C73.2955 268.809 73.298 268.777 73.3043 268.745C73.9408 261.927 75.3847 255.208 77.6057 248.729C87.1703 220.61 95.8033 193.065 101.275 172.953C105.532 157.313 107.873 146.159 107.269 142.729L172.386 146.055L199.016 147.416C199.016 147.416 208.438 192.731 218.734 227.047C230.87 267.547 225.712 286.87 204.606 315.22L212.13 338.999Z" fill="#4071F0"/>
<path d="M182.527 371.595C182.335 371.595 182.148 371.587 181.952 371.569C181.102 371.49 180.278 371.239 179.529 370.83C178.78 370.421 178.124 369.863 177.599 369.191C176.688 367.998 175.998 366.651 175.563 365.215L168.335 369.083C167.6 369.477 166.793 369.721 165.963 369.8C165.132 369.88 164.294 369.794 163.497 369.547C162.7 369.3 161.96 368.897 161.321 368.362C160.681 367.826 160.155 367.169 159.773 366.429C159.296 365.508 158.915 364.541 158.636 363.542L157.258 364.245C156.271 364.748 155.168 364.982 154.062 364.923C152.955 364.863 151.884 364.514 150.956 363.909C150.028 363.304 149.277 362.465 148.778 361.477C148.28 360.49 148.051 359.388 148.116 358.284C148.446 352.408 149.966 344.556 155.043 338.353C152.588 336.823 150.224 335.149 147.966 333.341L140.546 354.844C139.385 358.226 137.183 361.156 134.255 363.216C131.326 365.275 127.821 366.358 124.239 366.31C112.321 366.171 90.9402 366.246 81.6217 368.314C80.8714 368.481 80.0932 368.479 79.344 368.307C78.5948 368.135 77.8936 367.799 77.2917 367.321C76.6899 366.844 76.2026 366.238 75.8657 365.548C75.5288 364.859 75.3507 364.103 75.3446 363.335L66.6965 363.819C65.5991 363.881 64.5048 363.655 63.522 363.164C62.5392 362.673 61.702 361.934 61.0935 361.02C60.485 360.107 60.1263 359.05 60.053 357.956C59.9797 356.861 60.1944 355.767 60.6756 354.781C63.7422 348.486 72.2615 335.003 89.2333 334.022C81.8502 323.867 67.507 299.747 70.316 268.671C70.316 268.585 70.3274 268.487 70.3413 268.379C71.008 261.362 72.4979 254.446 74.7802 247.776C95.3109 187.45 105.333 148.897 104.33 143.25C104.252 142.81 104.275 142.357 104.396 141.927C104.517 141.496 104.735 141.098 105.031 140.763C105.328 140.427 105.697 140.163 106.11 139.99C106.523 139.816 106.971 139.738 107.418 139.761L199.166 144.448C199.825 144.481 200.454 144.732 200.954 145.16C201.455 145.589 201.799 146.171 201.932 146.815C202.027 147.268 211.456 192.398 221.588 226.201C232.293 261.911 230.173 282.613 213.186 308.241C209.889 313.216 209.045 319.383 210.874 325.161L214.97 338.113C215.47 339.698 215.501 341.394 215.058 342.995C214.615 344.597 213.718 346.037 212.474 347.142L186.73 370.003C185.57 371.028 184.075 371.594 182.527 371.595ZM177.767 357.685C178.526 357.685 179.256 357.974 179.809 358.493C180.362 359.011 180.696 359.72 180.743 360.476C180.878 362.645 181.421 364.396 182.312 365.543C182.334 365.572 182.363 365.596 182.395 365.614C182.428 365.631 182.463 365.641 182.5 365.643C182.548 365.646 182.596 365.641 182.642 365.625C182.687 365.61 182.729 365.586 182.765 365.554L208.511 342.685C208.896 342.344 209.173 341.899 209.31 341.404C209.447 340.91 209.437 340.386 209.283 339.896L205.186 326.945C202.815 319.446 203.923 311.429 208.216 304.95C224.25 280.756 226.112 262.036 215.878 227.9C206.974 198.196 198.622 159.87 196.574 150.278L110.232 145.868C108.799 162.803 91.3555 217.592 80.4312 249.7C78.2895 255.958 76.8945 262.446 76.275 269.03C76.2756 269.035 76.2756 269.04 76.275 269.045C76.275 269.073 76.275 269.099 76.275 269.125C72.7981 307.125 97.5493 334.96 97.7993 335.236C98.2078 335.687 98.4682 336.253 98.5454 336.856C98.6227 337.459 98.5131 338.071 98.2314 338.61C97.9497 339.149 97.5095 339.589 96.9698 339.871C96.4301 340.153 95.8168 340.264 95.2125 340.187C78.1852 338.015 69.6343 350.038 66.0488 357.392C66.019 357.445 66.0051 357.506 66.0089 357.567C66.0127 357.628 66.034 357.686 66.0703 357.736C66.1004 357.787 66.145 357.829 66.1986 357.856C66.2523 357.882 66.3125 357.893 66.372 357.885L78.1688 357.225C78.5717 357.204 78.9748 357.265 79.3534 357.405C79.7321 357.544 80.0785 357.758 80.3717 358.035C80.6649 358.312 80.8988 358.645 81.0592 359.015C81.2196 359.384 81.3031 359.782 81.3048 360.185V362.297C91.0475 360.398 109.929 360.186 124.302 360.357C126.63 360.386 128.908 359.682 130.812 358.344C132.716 357.006 134.149 355.103 134.907 352.906L143.798 327.168C143.964 326.692 144.247 326.265 144.623 325.928C144.998 325.591 145.454 325.355 145.946 325.241C146.438 325.128 146.951 325.141 147.437 325.28C147.922 325.419 148.364 325.678 148.722 326.034C153.632 330.935 161.145 335.046 161.221 335.087C161.641 335.315 162 335.641 162.268 336.037C162.535 336.434 162.703 336.888 162.757 337.363C162.812 337.838 162.75 338.319 162.579 338.765C162.408 339.211 162.132 339.609 161.774 339.927C155.993 345.044 154.398 352.913 154.079 358.613C154.071 358.674 154.082 358.737 154.109 358.793C154.137 358.849 154.18 358.895 154.233 358.928C154.278 358.962 154.333 358.982 154.39 358.984C154.446 358.987 154.503 358.973 154.551 358.943L159.802 356.264C160.277 356.021 160.808 355.91 161.34 355.942C161.873 355.975 162.387 356.149 162.829 356.447C163.271 356.745 163.625 357.156 163.853 357.637C164.082 358.118 164.177 358.652 164.128 359.182C163.992 360.694 164.313 362.214 165.08 363.708C165.098 363.745 165.124 363.777 165.155 363.802C165.186 363.828 165.222 363.847 165.261 363.858C165.345 363.883 165.436 363.874 165.513 363.833L176.354 358.037C176.789 357.804 177.274 357.684 177.767 357.685ZM76.1904 269.49C76.1904 269.49 76.1904 269.485 76.1917 269.485L76.1904 269.49Z" fill="#1B1D21"/>
<path d="M174.796 360.398C175.049 359.123 175.324 357.941 175.621 356.722C175.917 355.504 176.237 354.312 176.593 353.114C176.949 351.915 177.323 350.719 177.768 349.531C178.206 348.313 178.732 347.128 179.343 345.985C179.511 345.678 179.787 345.444 180.118 345.328C180.449 345.212 180.811 345.222 181.135 345.356C181.459 345.49 181.722 345.739 181.874 346.054C182.025 346.37 182.054 346.73 181.956 347.066L181.941 347.115C181.64 348.203 181.417 349.311 181.272 350.43C181.108 351.564 181.004 352.737 180.919 353.905C180.835 355.073 180.784 356.25 180.754 357.427C180.724 358.604 180.711 359.803 180.736 360.924C180.753 361.321 180.689 361.718 180.55 362.091C180.411 362.464 180.199 362.805 179.926 363.095C179.653 363.386 179.325 363.619 178.961 363.781C178.597 363.943 178.205 364.031 177.806 364.04C177.408 364.049 177.011 363.979 176.64 363.833C176.269 363.688 175.931 363.47 175.645 363.192C175.36 362.915 175.132 362.584 174.976 362.217C174.82 361.851 174.739 361.458 174.737 361.06C174.732 360.849 174.749 360.637 174.789 360.43L174.796 360.398Z" fill="#1B1D21"/>
<path d="M158.251 358.413C158.662 357.099 159.1 355.955 159.58 354.759C160.059 353.563 160.573 352.413 161.137 351.267C162.274 348.987 163.577 346.742 165.335 344.807C165.489 344.636 165.7 344.526 165.929 344.498C166.158 344.47 166.389 344.527 166.58 344.656C166.771 344.786 166.908 344.98 166.965 345.203C167.023 345.426 166.998 345.662 166.894 345.868L166.874 345.907C165.854 347.955 165.263 350.223 164.83 352.514C164.617 353.662 164.451 354.823 164.325 355.984C164.199 357.145 164.095 358.345 164.073 359.413C164.062 359.838 163.961 360.255 163.776 360.638C163.59 361.02 163.325 361.359 162.997 361.631C162.67 361.902 162.288 362.101 161.877 362.213C161.466 362.325 161.036 362.348 160.616 362.28C160.195 362.213 159.794 362.056 159.44 361.821C159.085 361.586 158.785 361.277 158.559 360.917C158.334 360.556 158.188 360.152 158.133 359.73C158.077 359.309 158.112 358.881 158.236 358.474L158.251 358.413Z" fill="#1B1D21"/>
<path d="M75.3534 359.913C75.3862 359.691 75.4177 359.555 75.448 359.415C75.4783 359.275 75.5112 359.129 75.5478 359.001C75.6185 358.737 75.6841 358.468 75.77 358.219C75.9227 357.709 76.1083 357.219 76.299 356.734C76.4896 356.249 76.7206 355.782 76.9302 355.314C77.1827 354.857 77.4138 354.398 77.6789 353.955C78.7285 352.182 80.0833 350.608 81.681 349.306C82.0647 348.972 82.4728 348.668 82.9018 348.396C83.326 348.117 83.7237 347.807 84.182 347.594L85.5114 346.904C85.9646 346.703 86.4343 346.545 86.8926 346.367L87.5819 346.115C87.8104 346.031 88.0528 345.989 88.2864 345.926L89.6953 345.582C90.6371 345.393 91.5891 345.32 92.5233 345.191C92.799 345.163 93.0756 345.236 93.301 345.397C93.5264 345.558 93.6851 345.796 93.7471 346.065C93.8092 346.335 93.7704 346.618 93.638 346.861C93.5056 347.104 93.2888 347.291 93.0283 347.385L92.8654 347.438C92.0511 347.704 91.2242 347.907 90.4452 348.209L89.3014 348.713C89.11 348.788 88.9225 348.872 88.7396 348.965L88.2106 349.278C87.8622 349.489 87.5024 349.679 87.1678 349.908L86.2159 350.637C85.8851 350.859 85.6238 351.164 85.3321 351.431C85.0395 351.691 84.77 351.976 84.5267 352.282C83.5187 353.445 82.7268 354.778 82.1885 356.218C82.0509 356.575 81.936 356.944 81.8173 357.301C81.7252 357.673 81.6153 358.035 81.5421 358.405C81.4689 358.774 81.3969 359.143 81.3565 359.506C81.3262 359.69 81.3186 359.864 81.3022 360.039C81.2934 360.13 81.2909 360.21 81.2896 360.285C81.2821 360.34 81.2821 360.397 81.2896 360.452C81.1864 361.212 80.7934 361.903 80.1926 362.381C79.5917 362.858 78.8292 363.086 78.0642 363.017C77.2991 362.947 76.5905 362.586 76.0859 362.007C75.5814 361.429 75.3199 360.679 75.3559 359.913H75.3534Z" fill="#1B1D21"/>
<path d="M158.077 335.268C158.265 335.152 158.33 335.127 158.448 335.065C158.567 335.003 158.645 334.973 158.745 334.928C158.942 334.835 159.124 334.766 159.311 334.69C159.682 334.547 160.045 334.415 160.408 334.312C161.118 334.089 161.841 333.906 162.572 333.765C163.98 333.493 165.408 333.338 166.841 333.302C168.234 333.278 169.626 333.351 171.008 333.521C171.689 333.587 172.361 333.732 173.028 333.833C173.694 333.965 174.352 334.124 175.007 334.267C175.229 334.317 175.426 334.445 175.56 334.629C175.694 334.812 175.758 335.037 175.738 335.264C175.719 335.49 175.618 335.701 175.454 335.859C175.291 336.017 175.075 336.11 174.848 336.121H174.78C174.141 336.15 173.509 336.164 172.88 336.206C172.249 336.276 171.628 336.304 171.011 336.408C169.794 336.576 168.59 336.828 167.408 337.164C166.271 337.499 165.164 337.929 164.098 338.447C163.59 338.695 163.097 338.973 162.621 339.278C162.387 339.423 162.169 339.581 161.963 339.734C161.865 339.811 161.757 339.889 161.675 339.963C161.636 340 161.581 340.041 161.549 340.073C161.517 340.104 161.457 340.156 161.511 340.132C160.865 340.587 160.064 340.766 159.284 340.632C158.505 340.497 157.811 340.058 157.356 339.413C156.9 338.768 156.72 337.968 156.855 337.19C156.99 336.413 157.429 335.72 158.076 335.265L158.077 335.268Z" fill="#1B1D21"/>
<path d="M146.614 328.138C146.614 328.138 70.6556 324.834 73.2942 268.843C73.293 268.811 73.2955 268.778 73.3018 268.746C73.9389 261.928 75.3828 255.21 77.6031 248.731C94.6153 198.744 108.653 150.569 107.272 142.73L172.39 146.057C161.039 170.365 119.411 278.136 146.614 328.138Z" fill="#FFDF46"/>
<path d="M146.614 330.37H146.516C144.825 330.297 104.835 328.301 83.6278 305.126C74.6237 295.286 70.3956 283.057 71.0584 268.781C71.0607 268.676 71.0687 268.572 71.0824 268.468C71.7424 261.501 73.2204 254.637 75.4859 248.015C93.5396 194.965 106.257 149.869 105.064 143.121C105.005 142.79 105.022 142.45 105.113 142.127C105.204 141.804 105.367 141.505 105.589 141.253C105.812 141.002 106.089 140.803 106.399 140.673C106.709 140.543 107.044 140.484 107.38 140.501L172.499 143.828C172.865 143.846 173.22 143.954 173.535 144.142C173.849 144.33 174.112 144.592 174.301 144.905C174.49 145.218 174.599 145.573 174.619 145.938C174.638 146.303 174.567 146.668 174.413 146.999C168.648 159.348 155.547 192.164 147.222 227.967C136.925 272.245 137.395 306.515 148.578 327.072C148.763 327.412 148.857 327.794 148.849 328.181C148.842 328.568 148.734 328.946 148.536 329.279C148.338 329.611 148.056 329.887 147.719 330.078C147.382 330.269 147.001 330.37 146.614 330.37ZM75.5276 268.969C74.9178 282.02 78.7508 293.163 86.9204 302.101C103.16 319.861 132.35 324.471 142.834 325.582C132.734 303.641 132.741 270.495 142.864 226.958C150.67 193.391 162.647 162.389 168.998 148.118L109.551 145.083C108.727 159.034 94.4688 206.136 79.7279 249.449C77.5671 255.762 76.1602 262.308 75.5364 268.95L75.5276 268.969Z" fill="#1B1D21"/>
<g opacity="0.2">
<path d="M212.13 341.448C212.458 342.484 212.479 343.594 212.189 344.642C211.9 345.691 211.312 346.633 210.497 347.355L184.75 370.224C184.415 370.525 184.021 370.754 183.594 370.896C183.167 371.039 182.715 371.093 182.266 371.055C181.817 371.016 181.381 370.886 180.984 370.673C180.588 370.46 180.239 370.168 179.96 369.815C178.934 368.493 177.975 366.398 177.771 363.107L166.93 368.904C166.544 369.112 166.12 369.241 165.684 369.283C165.248 369.326 164.807 369.281 164.388 369.152C163.969 369.023 163.58 368.812 163.244 368.532C162.908 368.251 162.631 367.906 162.429 367.518C161.631 365.964 160.937 363.842 161.166 361.363L155.918 364.042C155.399 364.307 154.819 364.43 154.237 364.399C153.655 364.369 153.092 364.185 152.604 363.867C152.116 363.549 151.721 363.108 151.458 362.588C151.196 362.069 151.075 361.489 151.109 360.909C151.34 356.793 152.246 351.036 155.166 345.913L155.196 345.86C153.146 359.366 163.642 352.558 163.642 352.558C167.474 364.969 179.208 353.734 179.208 353.734C179.208 353.734 186.962 356.746 193.193 347.803C197.043 342.273 192.623 328.711 188.688 319.164C187.523 316.329 187.229 313.212 187.844 310.21C188.459 307.208 189.954 304.456 192.141 302.305C224.779 270.127 204.639 207.609 196.832 187.251C196.129 185.411 194.819 183.866 193.117 182.87C191.416 181.874 189.425 181.488 187.473 181.774C150.559 187.237 119.93 181.167 101.283 175.402C105.54 159.762 107.88 148.608 107.277 145.178L172.394 148.504L199.024 149.866C199.024 149.866 208.446 195.179 218.741 229.495C230.878 269.995 225.719 289.319 204.614 317.668L212.13 341.448Z" fill="#1B1D21"/>
</g>
<g opacity="0.2">
<path d="M184.01 255.044C184.01 255.044 191.585 269.322 180.64 276.919C169.696 284.516 145.738 300.407 145.738 300.407C145.738 300.407 148.018 332.885 171.337 337.395L157.777 338.966C155.077 337.336 150.232 334.189 146.616 330.58L137.731 356.318C136.768 359.105 134.949 361.519 132.534 363.217C130.118 364.915 127.228 365.81 124.274 365.775C111.634 365.626 90.5096 365.733 80.9778 367.848C80.6598 367.92 80.3297 367.919 80.0119 367.847C79.6941 367.774 79.3967 367.631 79.142 367.428C78.8873 367.225 78.6817 366.967 78.5405 366.673C78.3994 366.38 78.3262 366.059 78.3265 365.733V362.631L66.5336 363.286C65.9547 363.319 65.3774 363.199 64.859 362.94C64.3407 362.681 63.8994 362.291 63.5789 361.808C63.2585 361.326 63.0701 360.768 63.0326 360.191C62.995 359.613 63.1095 359.036 63.3647 358.517C63.8811 357.456 64.5009 356.284 65.2458 355.059C70.0092 355.126 78.016 354.203 87.7069 348.994C87.7069 348.994 87.4468 359.889 116.188 355.712C118.135 355.432 119.958 354.591 121.435 353.293C122.911 351.995 123.977 350.296 124.501 348.403C124.866 347.077 124.954 345.69 124.761 344.328C124.568 342.966 124.097 341.658 123.378 340.484C122.659 339.311 121.707 338.296 120.581 337.504C119.454 336.712 118.177 336.158 116.828 335.878C107.794 333.988 94.5496 329.808 83.167 320.605C77.6801 309.642 72.5443 294.541 72.9761 276.937C79.3694 287.242 88.8835 299.199 101.111 305.202C105.609 307.413 110.798 307.771 115.559 306.198C120.319 304.626 124.27 301.25 126.559 296.797L146.885 257.23C146.885 257.23 181.225 250.064 196.855 210.368C196.855 210.372 198.808 241.348 184.01 255.044Z" fill="#1B1D21"/>
</g>
<path d="M2.99973 83.7119C2.93693 87.437 3.49892 91.1462 4.66244 94.6861C7.36166 103.003 12.9671 109.836 18.7519 112.262C20.8918 113.169 23.0608 113.467 25.1111 113.018C25.1111 113.018 18.7595 162.119 75.1059 151.033C75.1059 151.033 118.456 171.824 166.547 170.594C181.219 170.216 196.33 167.797 210.785 162.119C263.155 141.53 240.94 95.5921 241.736 80.5466C241.923 76.9452 241.662 71.93 240.835 66.3075C239.128 54.7902 235.065 40.7048 227.714 30.8609C223.659 25.4286 218.597 21.2766 212.372 19.5654C212.372 19.5654 198.886 5.30864 179.839 14.021C179.839 14.021 157.619 0.560592 127.469 14.8098C127.469 14.8098 97.5682 -1.46312 91.8567 36.2831C91.8567 36.2907 91.8491 36.2907 91.8491 36.2982C91.3561 39.6762 91.061 43.0801 90.9654 46.4924C90.0854 46.8101 89.2325 47.1982 88.4152 47.653C88.4112 47.6573 88.4058 47.6599 88.4 47.6605C86.7827 48.5426 84.6958 49.9665 83.0331 52.0356C83.0331 52.0356 69.5396 48.0764 61.6073 53.6208C61.6073 53.6208 33.8387 43.322 12.4129 63.1219C5.84035 69.1944 3.15628 76.5382 2.99973 83.7119Z" fill="#4071F0"/>
<g opacity="0.6">
<path d="M91.8542 36.2768C102.366 8.12874 131.589 19.1785 131.589 19.1785C134.691 18.3897 137.591 17.7924 140.289 17.3401C140.378 19.6763 145.12 21.5664 150.949 21.5664C156.839 21.5664 161.61 19.6397 161.61 17.2657C161.609 17.1305 161.594 16.9958 161.565 16.8637C169.363 18.1894 172.531 21.0158 172.531 21.0158C199.189 9.77316 216.266 28.8964 216.266 28.8964C225.636 33.5311 235.237 53.0903 240.836 66.2999C239.129 54.7826 235.067 40.6972 227.715 30.8533C223.66 25.4211 218.599 21.269 212.373 19.5578C212.373 19.5578 198.887 5.30107 179.84 14.0134C179.84 14.0134 157.62 0.553024 127.47 14.8022C127.467 14.8035 97.5657 -1.46943 91.8542 36.2768Z" fill="white"/>
</g>
<g opacity="0.6">
<path d="M2.99973 83.712C2.93693 87.4371 3.49892 91.1463 4.66244 94.6862C5.93377 78.5998 15.174 62.6104 36.9912 58.6147C61.2311 54.1716 80.3932 73.0566 80.926 73.5846L67.2759 57.0068C78.9199 54.6932 103.849 66.6427 104.557 66.9855L88.3975 56.441C102.935 46.0099 132.777 56.1663 133.552 56.4334C110.447 39.441 89.0742 47.401 88.4177 47.6468C88.4137 47.651 88.4083 47.6537 88.4025 47.6543C86.7853 48.5364 84.6984 49.9603 83.0357 52.0294C83.0357 52.0294 69.5421 48.0702 61.6098 53.6146C61.6098 53.6146 33.8412 43.3158 12.4154 63.1157C5.84035 69.1944 3.15628 76.5383 2.99973 83.712Z" fill="white"/>
</g>
<path d="M25.1111 113.013C25.1111 113.013 18.7595 162.114 75.1059 151.028C75.1059 151.028 118.456 171.819 166.547 170.589C198.961 158.945 190.373 116.473 170.371 104.88C148.217 92.045 143.159 114.368 128.775 122.567C114.39 130.767 100.827 128.192 88.4063 125.513C75.9859 122.834 65.0501 123.229 51.8406 120.454C38.6312 117.679 33.9486 109.211 33.9486 109.211C27.8924 112.344 22.8512 112.939 18.7519 112.262C20.8918 113.169 23.0608 113.467 25.1111 113.013Z" fill="#FFDF46"/>
<g opacity="0.2">
<path d="M18.7519 114.709C20.8918 115.617 23.0608 115.915 25.1111 115.465C25.1111 115.465 18.7595 164.568 75.1059 153.48C75.1059 153.48 118.456 174.272 166.547 173.042C181.219 172.664 196.33 170.244 210.785 164.568C263.155 143.979 240.94 98.0344 241.736 82.9951C242.311 72.0121 238.666 47.9644 227.714 33.3057C229.436 43.3864 231.24 62.2123 226.073 82.8603C226.073 82.8603 238.112 137.386 206.957 147.755C175.803 158.125 135.121 146.319 143.211 109.807C143.211 109.807 124.261 122.241 113.347 120.968C102.433 119.695 79.4199 110.119 65.5236 114.417C51.6273 118.715 32.931 97.2015 32.931 97.2015C32.931 97.2015 14.246 116.017 2.99973 86.1592C2.71693 98.9946 10.5596 111.267 18.7519 114.709Z" fill="#1B1D21"/>
</g>
<path d="M162.357 173.619C119.082 173.619 81.1571 157.093 74.7133 154.133C56.1546 157.608 42.1081 155.045 32.9701 146.509C22.7124 136.932 21.7529 122.684 21.917 116.133C20.427 115.975 18.9696 115.593 17.5942 114.999C9.51422 111.607 2.4998 101.535 0.550503 90.5079C-1.45308 79.1556 2.04025 68.6502 10.3891 60.9321C30.3366 42.5044 55.0045 48.442 61.2172 50.3473C68.3453 46.3313 77.9983 47.8271 82.0181 48.7091C84.1063 46.6237 86.452 45.264 88.0642 44.4866C88.9075 27.3492 93.7568 16.1343 102.492 11.1431C112.284 5.54448 123.598 9.73431 127.501 11.5085C154.139 -0.50021 174.546 7.95379 179.983 10.7071C197.639 3.48044 210.905 14.1636 213.901 16.903C239.225 24.6488 245.439 66.8545 244.706 80.698C244.564 83.3606 245.306 87.495 246.161 92.2821C247.969 102.373 250.444 116.192 246.954 129.581C242.808 145.487 231.004 157.366 211.868 164.889C198.261 170.233 183.037 173.154 166.614 173.57C165.198 173.601 163.772 173.619 162.357 173.619ZM75.1009 148.051C75.548 148.052 75.9893 148.152 76.3924 148.345C76.8191 148.549 119.688 168.809 166.466 167.615C182.19 167.215 196.731 164.433 209.687 159.344C249.329 143.762 243.89 113.413 240.295 93.3292C239.373 88.1792 238.576 83.7323 238.754 80.3842C239.496 66.2258 232.506 28.1922 211.577 22.4298C211.052 22.2848 210.576 21.9994 210.202 21.6044C209.713 21.0941 197.876 9.04125 181.08 16.7228C180.637 16.9255 180.151 17.0167 179.665 16.9886C179.178 16.9605 178.706 16.8139 178.29 16.5615C177.439 16.0575 156.972 4.15585 128.743 17.4965C128.318 17.6972 127.852 17.7947 127.382 17.7812C126.912 17.7676 126.451 17.6433 126.039 17.4184C125.928 17.3604 114.32 11.2187 105.429 16.3271C98.3119 20.4162 94.4448 30.5952 93.9474 46.5808C93.928 47.189 93.7223 47.7766 93.3579 48.2644C92.9936 48.7522 92.4881 49.1167 91.9098 49.3089C91.882 49.319 87.9203 50.7014 85.3624 53.8894C84.9929 54.3505 84.4942 54.6913 83.9298 54.8686C83.3655 55.0459 82.7611 55.0516 82.1936 54.8849C82.0749 54.8496 69.965 51.4083 63.3193 56.0517C62.9238 56.3278 62.4672 56.5041 61.9885 56.5655C61.5099 56.6269 61.0234 56.5717 60.5708 56.4046C59.5078 56.0139 34.2162 47.0231 14.4405 65.2996C5.25077 73.7939 5.47676 84.0952 6.4249 89.4809C8.22648 99.6776 14.5705 107.28 19.9071 109.516H19.9172C21.5584 110.209 23.0823 110.407 24.4622 110.101C24.9296 109.997 25.4152 110.008 25.8778 110.131C26.3405 110.254 26.7666 110.487 27.12 110.809C27.4735 111.131 27.744 111.534 27.9085 111.983C28.0731 112.432 28.1269 112.913 28.0653 113.387C28.0426 113.566 25.8901 131.77 37.072 142.182C44.8881 149.462 57.4878 151.452 74.5227 148.104C74.7141 148.068 74.9086 148.051 75.1034 148.051H75.1009Z" fill="#1B1D21"/>
<path d="M89.737 43.8603C90.1018 43.7658 90.3455 43.7141 90.6346 43.6524C90.9237 43.5906 91.1876 43.5415 91.4603 43.4923C92.0069 43.3928 92.5473 43.3071 93.0876 43.2315C94.1683 43.084 95.244 42.9631 96.3209 42.8887C102.74 42.4214 109.192 43.1146 115.364 44.9351C119.43 46.1516 123.326 47.8756 126.959 50.0663C130.533 52.2616 133.838 54.8658 136.807 57.8259C137.001 58.0229 137.112 58.2867 137.116 58.563C137.121 58.8392 137.02 59.1067 136.832 59.3103C136.645 59.5138 136.387 59.6377 136.111 59.6565C135.834 59.6753 135.562 59.5874 135.348 59.4111L135.34 59.4036C132.31 56.8188 128.988 54.5949 125.443 52.7767C121.923 51.0097 118.193 49.6934 114.343 48.8591C108.615 47.6374 102.712 47.4593 96.9206 48.3336C95.9661 48.4735 95.0205 48.6562 94.0901 48.8578C93.6255 48.9599 93.1634 49.0708 92.7127 49.1892L92.0461 49.3745C91.839 49.4337 91.5891 49.5118 91.4628 49.5572C91.0946 49.6918 90.7034 49.7527 90.3116 49.7364C89.9198 49.7201 89.535 49.627 89.1793 49.4623C88.8235 49.2976 88.5038 49.0646 88.2382 48.7766C87.9727 48.4885 87.7666 48.1511 87.6318 47.7836C87.4969 47.4161 87.4359 47.0256 87.4522 46.6345C87.4685 46.2435 87.5618 45.8594 87.7268 45.5044C87.8918 45.1493 88.1253 44.8302 88.4139 44.5651C88.7024 44.3001 89.0405 44.0944 89.4087 43.9598C89.4956 43.9275 89.5841 43.8998 89.6738 43.8767L89.737 43.8603Z" fill="#1B1D21"/>
<path d="M83.4334 49.1249C83.8601 49.3101 84.1681 49.4601 84.5141 49.6289C84.86 49.7978 85.1819 49.9629 85.5064 50.133C86.1642 50.4707 86.7929 50.8349 87.4279 51.1927C88.6828 51.9261 89.9138 52.6809 91.1081 53.4861C93.4943 55.0737 95.7859 56.7988 97.971 58.6525C100.146 60.4881 102.215 62.4461 104.166 64.517C106.137 66.5558 107.925 68.7535 109.653 70.9737C109.823 71.1799 109.906 71.4442 109.885 71.7105C109.863 71.9768 109.739 72.2242 109.537 72.4005C109.336 72.5767 109.074 72.6679 108.807 72.6546C108.54 72.6414 108.288 72.5248 108.105 72.3296L108.081 72.3044C106.155 70.3538 104.195 68.4498 102.084 66.7247C100.004 64.98 97.8249 63.3556 95.5584 61.8595C93.3133 60.3677 90.983 59.0078 88.5793 57.7868C87.3875 57.1719 86.173 56.6124 84.9585 56.0794C84.3474 55.8274 83.7376 55.5615 83.1278 55.3347C82.8223 55.2162 82.5181 55.1016 82.2176 54.997C81.9171 54.8924 81.5863 54.779 81.3717 54.716C80.6131 54.4928 79.9741 53.9787 79.5944 53.2863C79.2147 52.5939 79.1254 51.7795 79.346 51.0215C79.5666 50.2635 80.0791 49.6236 80.7714 49.2419C81.4636 48.8602 82.2792 48.7679 83.0395 48.985C83.1553 49.0208 83.2691 49.0628 83.3803 49.111L83.4334 49.1249Z" fill="#1B1D21"/>
<path d="M63.0932 51.049C63.3268 51.1649 63.4796 51.2544 63.6513 51.3489C63.823 51.4434 63.9833 51.5392 64.1411 51.635C64.4605 51.8252 64.7724 52.013 65.0741 52.2171C65.6889 52.604 66.2659 53.0248 66.8517 53.4344C67.998 54.2824 69.1027 55.1695 70.1531 56.107C72.2556 57.9644 74.1723 60.0213 75.876 62.2488C77.5665 64.4602 79.084 66.7952 80.2872 69.2776C80.5826 69.9076 80.9361 70.4911 81.1772 71.1375L81.9587 73.0402C82.239 73.6703 82.4246 74.3255 82.6392 74.9732L83.2629 76.9176C83.3327 77.1359 83.3167 77.3725 83.2183 77.5796C83.1198 77.7866 82.9462 77.9486 82.7327 78.0327C82.5191 78.1168 82.2814 78.1167 82.0679 78.0325C81.8543 77.9483 81.6808 77.7862 81.5825 77.5791L81.5509 77.5123L80.7152 75.7482C80.4336 75.1635 80.1824 74.5662 79.839 74.013L78.8719 72.3295C78.5727 71.7587 78.1637 71.2496 77.8177 70.7091C76.4075 68.5593 74.7335 66.6049 72.9432 64.8042C71.1601 63.0075 69.2053 61.389 67.1067 59.9718C66.0702 59.2636 64.9983 58.6146 63.9139 58.0111C63.3659 57.7263 62.8231 57.4276 62.2726 57.1756C61.9974 57.0395 61.7247 56.9236 61.4533 56.7976C61.3169 56.7371 61.1806 56.6779 61.053 56.63C60.9255 56.5821 60.7804 56.5204 60.7109 56.504C59.9426 56.2921 59.2902 55.7843 58.897 55.0922C58.5039 54.4002 58.4023 53.5806 58.6145 52.8138C58.8268 52.047 59.3356 51.3957 60.029 51.0033C60.7223 50.6109 61.5435 50.5095 62.3118 50.7214C62.49 50.7698 62.6633 50.8347 62.8294 50.9154L63.0932 51.049Z" fill="#1B1D21"/>
<path d="M24.4571 110.763C25.1477 110.575 25.9191 110.335 26.64 110.092C27.3609 109.849 28.0944 109.588 28.7951 109.3C29.4957 109.011 30.1838 108.721 30.8239 108.391C31.4255 108.091 32.0018 107.742 32.5472 107.349C32.7918 107.166 33.0703 107.032 33.3666 106.956C33.663 106.881 33.9714 106.864 34.2743 106.907C34.5771 106.95 34.8685 107.052 35.1317 107.208C35.3949 107.364 35.6248 107.57 35.8082 107.814L35.8398 107.856C36.1529 108.274 36.5796 108.796 36.976 109.257C37.3725 109.718 37.8105 110.196 38.2385 110.654C39.1096 111.565 40.0212 112.44 40.9706 113.268C42.8356 114.927 44.875 116.38 47.0533 117.601C49.1712 118.799 51.4593 119.669 53.8392 120.181C54.425 120.307 55.0146 120.394 55.6067 120.472C56.2076 120.527 56.7606 120.583 57.4449 120.607C58.7579 120.678 60.0721 120.714 61.3876 120.764C64.0212 120.85 66.6674 120.865 69.3641 120.91C72.0608 120.956 74.8118 121.064 77.5552 121.345C80.29 121.627 83.0087 122.047 85.7008 122.605C88.376 123.153 91.0336 123.851 93.5687 124.504C96.1038 125.157 98.6616 125.716 101.211 126.121C103.738 126.525 106.295 126.726 108.855 126.722C113.946 126.715 118.976 125.609 123.598 123.478C128.242 121.366 132.384 118.168 136.097 114.532C139.813 110.877 143.051 106.703 146.028 102.343V102.336C146.176 102.116 146.404 101.962 146.665 101.907C146.925 101.852 147.196 101.901 147.421 102.043C147.646 102.185 147.806 102.409 147.868 102.667C147.929 102.925 147.888 103.197 147.751 103.425C145.022 108.07 141.868 112.508 138.184 116.548C134.456 120.533 130.144 124.12 125.139 126.649C122.639 127.929 120.001 128.92 117.276 129.604C114.547 130.28 111.754 130.661 108.943 130.738C106.16 130.811 103.376 130.661 100.617 130.289C97.8788 129.924 95.1884 129.387 92.5486 128.791C89.9087 128.195 87.3723 127.548 84.8145 127.053C82.2708 126.555 79.7034 126.185 77.1221 125.947C71.9964 125.468 66.7002 125.695 61.2677 125.569C59.9143 125.54 58.5597 125.483 57.205 125.413C56.5561 125.39 55.7784 125.321 55.0499 125.247C54.3164 125.15 53.5854 125.041 52.8658 124.885C50.0153 124.271 47.2748 123.229 44.7379 121.794C42.2552 120.402 39.9337 118.741 37.8156 116.841C36.766 115.897 35.7632 114.908 34.8071 113.874C34.3311 113.355 33.8627 112.829 33.407 112.287C32.9512 111.746 32.5232 111.219 32.0498 110.562L35.3424 111.066C34.5687 111.621 33.7493 112.11 32.8931 112.527C32.0826 112.93 31.2746 113.259 30.4666 113.574C29.6586 113.889 28.8456 114.152 28.0325 114.407C27.2195 114.661 26.4228 114.886 25.5416 115.102C24.9677 115.252 24.3579 115.167 23.8464 114.868C23.3349 114.568 22.9635 114.078 22.814 113.505C22.6645 112.932 22.7491 112.324 23.0492 111.813C23.3493 111.303 23.8403 110.932 24.4142 110.783L24.4571 110.763Z" fill="#1B1D21"/>
<path d="M149.924 118.435C149.583 116.059 149.166 113.685 148.526 111.469C147.886 109.254 147.064 107.156 145.945 105.344C145.397 104.45 144.755 103.617 144.029 102.86C143.322 102.103 142.532 101.427 141.674 100.844C139.958 99.6232 137.886 98.8004 135.614 97.97L135.548 97.946C135.325 97.8645 135.135 97.71 135.011 97.5076C134.886 97.3052 134.834 97.0668 134.862 96.831C134.891 96.5953 134.998 96.376 135.167 96.2087C135.336 96.0415 135.556 95.9361 135.793 95.9097C136.454 95.8252 137.12 95.7831 137.786 95.7837C138.454 95.8228 139.137 95.8303 139.806 95.9652C141.188 96.1816 142.526 96.6145 143.772 97.2479C146.318 98.5194 148.427 100.693 149.749 103.138C151.07 105.582 151.79 108.249 152.015 110.865C152.207 113.494 152.049 116.073 151.3 118.595C151.255 118.749 151.158 118.884 151.026 118.975C150.893 119.067 150.734 119.11 150.573 119.099C150.412 119.087 150.261 119.021 150.143 118.911C150.025 118.801 149.949 118.655 149.927 118.496L149.924 118.435Z" fill="#1B1D21"/>
<path d="M181.715 16.4467C181.298 16.6231 180.757 16.9054 180.278 17.1675C179.8 17.4296 179.293 17.7219 178.806 18.0168C177.835 18.609 176.89 19.2483 175.972 19.9347C174.145 21.312 172.458 22.8833 171.092 24.7482L171.073 24.7747C170.958 24.9317 170.79 25.0421 170.599 25.0859C170.409 25.1298 170.21 25.104 170.037 25.0134C169.864 24.9229 169.729 24.7734 169.658 24.5923C169.586 24.4111 169.582 24.2103 169.645 24.0262C170.065 22.8236 170.583 21.6575 171.195 20.5395C171.812 19.4223 172.496 18.3434 173.244 17.3086C173.993 16.277 174.792 15.2786 175.642 14.3134C176.066 13.832 176.502 13.3582 176.954 12.8932C177.406 12.4283 177.838 11.991 178.411 11.4895L178.537 11.3836C179.141 10.8538 179.932 10.5852 180.734 10.6369C181.537 10.6887 182.286 11.0565 182.817 11.6596C183.348 12.2627 183.617 13.0515 183.565 13.8526C183.513 14.6537 183.145 15.4015 182.541 15.9313C182.294 16.1446 182.015 16.3184 181.715 16.4467Z" fill="#1B1D21"/>
<path d="M215.314 18.2285C215.418 18.4178 215.511 18.613 215.593 18.8132C215.67 18.9884 215.729 19.1522 215.795 19.3172C215.921 19.6499 216.037 19.9763 216.139 20.3026C216.351 20.9541 216.527 21.5993 216.681 22.2445C216.98 23.5137 217.205 24.799 217.356 26.0941C217.496 27.3592 217.571 28.6306 217.582 29.9033C217.601 31.1634 217.536 32.4122 217.445 33.6458C217.435 33.7603 217.386 33.8679 217.305 33.9497C217.224 34.0315 217.117 34.0824 217.003 34.0935C216.888 34.1046 216.773 34.0752 216.678 34.0104C216.583 33.9456 216.514 33.8496 216.483 33.7391V33.7252C216.162 32.5558 215.82 31.4054 215.403 30.2889C214.999 29.1823 214.539 28.0968 214.025 27.0366C213.517 26.0077 212.951 25.0088 212.328 24.0451C212.021 23.5739 211.697 23.1164 211.37 22.6905C211.207 22.4738 211.035 22.2684 210.865 22.0731C210.78 21.9798 210.695 21.8778 210.612 21.7959C210.529 21.7139 210.429 21.5993 210.409 21.6144C210.186 21.293 210.029 20.931 209.946 20.549C209.863 20.1669 209.857 19.7724 209.927 19.3878C209.997 19.0033 210.142 18.6362 210.354 18.3077C210.566 17.9792 210.841 17.6956 211.163 17.4731C211.485 17.2506 211.848 17.0936 212.231 17.011C212.613 16.9284 213.009 16.9219 213.394 16.9918C213.779 17.0618 214.147 17.2067 214.476 17.4185C214.805 17.6302 215.09 17.9046 215.312 18.226L215.314 18.2285Z" fill="#1B1D21"/>
<path d="M51.8369 89.4933C54.1015 89.4933 55.9374 86.6618 55.9374 83.1689C55.9374 79.676 54.1015 76.8445 51.8369 76.8445C49.5722 76.8445 47.7363 79.676 47.7363 83.1689C47.7363 86.6618 49.5722 89.4933 51.8369 89.4933Z" fill="#1B1D21"/>
<path d="M20.1533 83.1689C22.418 83.1689 24.2538 80.3373 24.2538 76.8445C24.2538 73.3516 22.418 70.52 20.1533 70.52C17.8886 70.52 16.0527 73.3516 16.0527 76.8445C16.0527 80.3373 17.8886 83.1689 20.1533 83.1689Z" fill="#1B1D21"/>
<path d="M123.314 125.565C127.339 123.758 131.432 121.064 135.525 117.157C133.602 113.772 129.882 109.456 122.658 105.49C122.658 105.49 123.412 116.012 123.314 125.565Z" fill="white"/>
<path d="M100.823 128.192C102.173 140.626 110.357 145.298 110.357 145.298C111.476 138.974 113.712 133.766 113.712 128.348C109.217 129.004 104.878 128.782 100.823 128.192Z" fill="white"/>
<path d="M75.1779 123.467C78.9502 123.712 83.0281 124.256 88.4025 125.513C88.3515 119.232 86.9402 113.036 84.2653 107.35C84.2653 107.35 77.3544 111.376 75.1779 123.467Z" fill="white"/>
<path d="M59.6643 140.834C58.3084 135.415 59.4257 128.066 60.5064 123.141C59.307 123.103 58.0319 123.051 56.6823 122.977C53.1196 122.775 49.8648 121.794 47.0217 120.457C46.0003 136.496 59.6643 140.834 59.6643 140.834Z" fill="white"/>
<path d="M23.509 113.409L20.4524 125.556C19.9475 127.572 17.0955 127.659 16.4693 125.671L9.92828 104.879C9.92828 104.879 15.6815 112.779 23.509 113.409Z" fill="white"/>
<path d="M124.153 124.286C124.116 124.196 124.06 124.115 123.988 124.05C123.916 123.984 123.83 123.936 123.737 123.908C123.668 123.89 123.596 123.89 123.528 123.908C123.505 123.913 123.484 123.922 123.465 123.936C123.453 123.946 123.523 123.917 123.547 123.909L124.398 123.603C124.963 123.392 125.516 123.151 126.064 122.893C127.161 122.374 128.224 121.784 129.246 121.129C130.277 120.48 131.261 119.76 132.191 118.973C133.128 118.189 133.99 117.319 134.766 116.375L134.573 117.693C133.084 115.343 131.115 113.313 128.922 111.573C126.729 109.833 124.295 108.375 121.765 107.12L124.523 105.355C124.695 108.739 124.805 112.091 124.867 115.461C124.9 117.145 124.913 118.83 124.914 120.516L124.897 123.046L124.89 123.676V123.755V123.779C124.888 123.792 124.884 123.804 124.877 123.815C124.863 123.838 124.843 123.857 124.818 123.869C124.568 123.957 124.341 124.099 124.153 124.286ZM122.476 126.845C122.164 126.18 121.947 125.475 121.831 124.75C121.803 124.557 121.785 124.364 121.774 124.176L121.764 123.898V123.687L121.75 123.065L121.684 120.572C121.629 118.91 121.559 117.247 121.474 115.585C121.302 112.263 121.081 108.924 120.803 105.63V105.585C120.775 105.25 120.84 104.914 120.991 104.614C121.141 104.314 121.372 104.061 121.658 103.884C121.943 103.706 122.273 103.611 122.609 103.608C122.945 103.606 123.276 103.696 123.564 103.868C126.16 105.451 128.648 107.243 130.87 109.356C133.092 111.469 135.061 113.877 136.48 116.622L136.544 116.748C136.647 116.948 136.678 117.177 136.631 117.397C136.583 117.617 136.461 117.813 136.284 117.953C135.254 118.709 134.282 119.51 133.291 120.295C132.3 121.08 131.322 121.879 130.311 122.644C129.3 123.409 128.265 124.156 127.202 124.864L125.593 125.927L124.775 126.446C124.73 126.472 124.73 126.478 124.649 126.521C124.568 126.564 124.471 126.608 124.374 126.647C124.17 126.73 123.958 126.794 123.742 126.836C123.324 126.91 122.896 126.913 122.476 126.845Z" fill="#1B1D21"/>
<path d="M102.116 129.538C102.323 129.702 102.56 129.826 102.813 129.904C102.872 129.917 102.924 129.951 102.96 130.001C102.974 130.025 102.981 130.052 102.983 130.08C102.983 130.11 103.021 130.254 103.039 130.332L103.3 131.481L103.426 132.054L103.6 132.614L103.945 133.735L104.372 134.824L104.585 135.369L104.838 135.893C105.011 136.239 105.163 136.598 105.352 136.937C106.083 138.3 106.963 139.578 107.976 140.747C108.477 141.326 109.013 141.873 109.582 142.385C109.869 142.629 110.154 142.889 110.45 143.103C110.597 143.219 110.744 143.329 110.89 143.428C110.962 143.479 111.038 143.535 111.105 143.576L111.276 143.686L108.515 144.978V144.969C109.113 142.031 109.979 139.214 110.761 136.472C111.544 133.73 112.22 131.036 112.299 128.354L113.906 129.74C111.7 130.129 109.466 130.34 107.225 130.37C106.107 130.387 104.989 130.366 103.873 130.305C103.316 130.276 102.76 130.237 102.204 130.192L101.372 130.116C101.312 130.116 101.361 130.116 101.394 130.116C101.43 130.118 101.466 130.115 101.501 130.108C101.591 130.092 101.676 130.059 101.753 130.011C101.928 129.903 102.057 129.735 102.116 129.538ZM99.5302 126.857C99.896 126.676 100.287 126.552 100.689 126.486C100.903 126.454 101.12 126.44 101.337 126.445C101.442 126.445 101.545 126.453 101.645 126.465L101.866 126.494L102.638 126.62C103.154 126.698 103.67 126.771 104.186 126.835C105.219 126.964 106.254 127.057 107.292 127.115C109.365 127.234 111.445 127.185 113.51 126.966H113.563C113.933 126.927 114.304 127.035 114.594 127.268C114.884 127.501 115.069 127.839 115.109 128.209C115.109 128.259 115.117 128.311 115.117 128.36C115.188 131.461 114.58 134.447 113.938 137.284C113.295 140.12 112.601 142.877 112.194 145.623V145.631L112.185 145.679C112.14 145.916 112.049 146.143 111.916 146.345C111.783 146.548 111.612 146.722 111.412 146.858C111.212 146.994 110.986 147.09 110.749 147.139C110.512 147.188 110.267 147.191 110.029 147.145C109.819 147.105 109.618 147.029 109.433 146.921C109.272 146.828 109.181 146.766 109.071 146.694C108.961 146.622 108.864 146.554 108.763 146.485C108.561 146.347 108.371 146.204 108.186 146.059C107.807 145.776 107.46 145.468 107.106 145.165C106.421 144.55 105.775 143.893 105.174 143.196C103.976 141.816 102.936 140.308 102.073 138.699C101.853 138.301 101.671 137.885 101.469 137.478L101.175 136.864L100.923 136.234L100.43 134.974L100.029 133.681L99.8307 133.035L99.6779 132.378L99.3812 131.05C99.356 130.924 99.3345 130.865 99.3055 130.687C99.2764 130.51 99.255 130.328 99.236 130.142C99.1977 129.759 99.1855 129.373 99.1994 128.989C99.2375 128.267 99.3483 127.551 99.5302 126.852V126.857Z" fill="#1B1D21"/>
<path d="M88.4025 127.373C88.2593 127.373 88.1166 127.356 87.9771 127.324C83.2263 126.213 79.2419 125.595 75.0567 125.323C74.7949 125.306 74.5397 125.234 74.3077 125.111C74.0757 124.989 73.8722 124.819 73.7106 124.613C73.5489 124.407 73.4326 124.169 73.3693 123.914C73.3061 123.66 73.2973 123.396 73.3435 123.138C75.6463 110.349 83.0142 105.926 83.326 105.749C83.5494 105.618 83.7974 105.536 84.0544 105.507C84.3114 105.477 84.5717 105.502 84.8187 105.578C85.0657 105.655 85.294 105.782 85.4891 105.951C85.6843 106.121 85.8419 106.329 85.952 106.563C88.7403 112.493 90.2127 118.955 90.2685 125.506C90.2703 125.751 90.2235 125.994 90.1306 126.221C90.0378 126.449 89.9008 126.655 89.7276 126.829C89.5543 127.003 89.3483 127.142 89.1213 127.236C88.8943 127.33 88.6509 127.378 88.4051 127.378L88.4025 127.373ZM77.4378 121.781C80.4677 122.068 83.4784 122.531 86.4545 123.167C86.1641 118.755 85.1764 114.417 83.528 110.314C81.7328 112.044 78.9452 115.576 77.4378 121.781Z" fill="#1B1D21"/>
<path d="M59.6643 142.695C59.4728 142.695 59.2824 142.665 59.1 142.606C58.9497 142.559 44.0611 137.628 45.1608 120.339C45.1807 120.037 45.2742 119.744 45.4331 119.486C45.5921 119.228 45.8116 119.013 46.0728 118.859C46.334 118.705 46.6288 118.616 46.9319 118.602C47.235 118.587 47.5371 118.646 47.812 118.774C50.765 120.16 53.7836 120.953 56.7846 121.123C58.0218 121.191 59.2578 121.249 60.5607 121.284C60.8347 121.292 61.1035 121.36 61.3482 121.483C61.5928 121.607 61.8072 121.783 61.976 121.998C62.1448 122.214 62.2638 122.464 62.3247 122.73C62.3856 122.997 62.3868 123.274 62.3282 123.541C61.2475 128.466 60.2211 135.386 61.4735 140.387C61.5417 140.662 61.5464 140.948 61.4874 141.224C61.4284 141.501 61.3071 141.76 61.1328 141.983C60.9585 142.205 60.7357 142.386 60.4812 142.51C60.2268 142.634 59.9475 142.698 59.6643 142.698V142.695ZM48.8586 123.229C49.2525 131.41 54.0348 135.676 57.282 137.642C56.9411 133.449 57.5042 128.806 58.2427 124.915C57.686 124.891 57.1343 124.863 56.5813 124.833C53.9425 124.676 51.3409 124.136 48.8586 123.229Z" fill="#1B1D21"/>
<path d="M18.4325 128.979C17.5948 128.983 16.7779 128.718 16.103 128.223C15.4281 127.728 14.931 127.028 14.6854 126.229L8.14315 105.437C8.01202 105.017 8.03453 104.564 8.20669 104.159C8.37885 103.753 8.6895 103.422 9.08336 103.224C9.47722 103.026 9.92876 102.973 10.3577 103.076C10.7866 103.179 11.165 103.43 11.4256 103.786C11.4774 103.856 16.7938 110.997 23.6542 111.555C23.9238 111.577 24.1854 111.658 24.4208 111.791C24.6562 111.924 24.8597 112.107 25.0172 112.326C25.1747 112.546 25.2825 112.797 25.3329 113.062C25.3833 113.328 25.3753 113.601 25.3093 113.863L22.2566 126.01C22.0532 126.842 21.5806 127.583 20.9121 128.12C20.2435 128.656 19.4164 128.958 18.5587 128.977L18.4325 128.979ZM13.933 111.408L18.2456 125.114C18.2546 125.159 18.2805 125.199 18.318 125.226C18.3556 125.253 18.402 125.264 18.4476 125.258C18.4707 125.261 18.4941 125.259 18.5164 125.253C18.5388 125.246 18.5597 125.236 18.5778 125.221C18.596 125.207 18.611 125.189 18.622 125.168C18.6331 125.148 18.6399 125.126 18.6421 125.103L21.21 114.927C18.4072 114.281 15.9378 112.897 13.933 111.408Z" fill="#183C10"/>
<path d="M129.09 12.3073C129.235 12.4206 129.371 12.5444 129.498 12.6778C129.61 12.7874 129.699 12.8895 129.796 12.9953C129.98 13.2045 130.158 13.4099 130.319 13.6254C130.649 14.04 130.942 14.4596 131.219 14.8855C131.754 15.7147 132.233 16.5789 132.652 17.4725C133.051 18.3376 133.4 19.2254 133.696 20.1313C133.992 21.0209 134.221 21.9231 134.424 22.8165C134.471 23.0274 134.444 23.248 134.346 23.441C134.249 23.6339 134.088 23.7872 133.89 23.8748C133.692 23.9624 133.47 23.9789 133.261 23.9215C133.052 23.8641 132.87 23.7364 132.745 23.56L132.725 23.531C132.229 22.8254 131.723 22.1449 131.173 21.506C130.638 20.8768 130.066 20.2793 129.46 19.7167C128.876 19.1804 128.255 18.6853 127.602 18.2348C127.294 18.022 126.975 17.8251 126.647 17.6451C126.489 17.5556 126.33 17.4813 126.18 17.4107C126.107 17.3805 126.029 17.3414 125.964 17.3213C125.9 17.3011 125.799 17.2545 125.838 17.3087C125.51 17.0958 125.226 16.8204 125.005 16.4983C124.783 16.1761 124.627 15.8135 124.545 15.4312C124.464 15.0489 124.459 14.6543 124.53 14.27C124.601 13.8856 124.748 13.5191 124.961 13.1913C125.175 12.8635 125.45 12.5808 125.773 12.3594C126.096 12.138 126.459 11.9822 126.842 11.901C127.225 11.8197 127.621 11.8145 128.006 11.8858C128.391 11.957 128.758 12.1033 129.086 12.3161L129.09 12.3073Z" fill="#1B1D21"/>
<path d="M204.146 56.7535H204.13C203.739 56.7516 203.352 56.6728 202.991 56.5216C202.63 56.3703 202.302 56.1495 202.026 55.8718C201.751 55.5942 201.533 55.265 201.385 54.9032C201.237 54.5414 201.162 54.154 201.164 53.7632C201.164 53.2592 201.037 41.2568 191.139 40.2399C181.446 39.2444 178.216 50.0686 178.084 50.5336C177.978 50.9098 177.798 51.2615 177.556 51.5685C177.313 51.8754 177.013 52.1318 176.671 52.3228C176.329 52.5138 175.953 52.6358 175.564 52.6817C175.175 52.7277 174.781 52.6968 174.404 52.5907C174.027 52.4847 173.675 52.3055 173.368 52.0635C173.06 51.8216 172.803 51.5215 172.612 51.1805C172.42 50.8395 172.298 50.4641 172.252 50.076C172.206 49.6878 172.237 49.2944 172.343 48.9182C173.91 43.3397 179.984 33.109 191.75 34.3187C203.981 35.5788 207.153 47.6064 207.126 53.7922C207.123 54.5789 206.807 55.332 206.248 55.887C205.69 56.4419 204.934 56.7535 204.146 56.7535Z" fill="#1B1D21"/>
<path d="M122.658 47.2763C121.868 47.2759 121.111 46.9631 120.552 46.4064C119.993 45.8496 119.678 45.0944 119.676 44.3062C119.676 43.8727 119.49 33.4694 111.336 32.0014C102.996 30.5018 99.4974 40.9392 99.3534 41.384C99.0935 42.1121 98.56 42.7107 97.8658 43.0531C97.1716 43.3956 96.3711 43.4551 95.6337 43.2191C94.8964 42.983 94.2799 42.4699 93.9148 41.7883C93.5496 41.1068 93.4644 40.3101 93.6773 39.567C95.4296 34.0742 101.601 24.1938 112.398 26.1406C122.85 28.022 125.632 38.8361 125.644 44.286C125.644 44.6769 125.568 45.0641 125.419 45.4255C125.27 45.787 125.051 46.1155 124.775 46.3925C124.498 46.6695 124.17 46.8894 123.809 47.0397C123.447 47.1901 123.06 47.2679 122.668 47.2687L122.658 47.2763Z" fill="#1B1D21"/>
<path d="M262.453 58.1597L261.03 54.2975C259.667 50.601 257.202 47.4099 253.967 45.1537C250.732 42.8974 246.882 41.6843 242.936 41.6776H230.816C230.487 34.3184 227.575 27.3093 222.589 21.8779C217.603 16.4466 210.861 12.9394 203.545 11.9708L184.677 9.45057C177.879 8.55127 170.973 9.89091 165.008 13.266C159.043 16.6411 154.344 21.8672 151.626 28.1504C147.51 26.1935 143.18 26.1053 139.506 26.8185C138.492 20.5237 135.474 14.7223 130.898 10.2738C126.322 5.82533 120.432 2.96639 114.101 2.12058L100.146 0.263198C92.3417 -0.774267 84.4438 1.32433 78.1892 6.09757C71.9345 10.8708 67.8351 17.9279 66.7924 25.7172C66.5795 27.3302 66.4728 28.9555 66.473 30.5824C66.473 39.9878 68.8717 45.352 74.9557 51.96C76.9618 50.5462 81.2858 52.0495 85.139 50.4126C78.8404 44.6829 75.3508 36.0664 76.554 27.0189C76.8978 24.4415 77.7468 21.9571 79.0527 19.7073C80.3585 17.4575 82.0956 15.4865 84.1647 13.9068C86.2338 12.3271 88.5944 11.1697 91.1116 10.5007C93.6289 9.83165 96.2536 9.66407 98.8358 10.0075L112.796 11.8637C115.379 12.2066 117.869 13.0542 120.124 14.358C122.379 15.6618 124.354 17.3963 125.937 19.4623C127.52 21.5283 128.679 23.8854 129.349 26.3989C130.019 28.9123 130.186 31.5328 129.84 34.1107C129.062 40.0606 126.29 45.5728 121.975 49.751C124.247 50.8977 127.582 51.8793 131.033 54.484C136.743 49.2382 138.204 44.848 139.285 37.6755C141.305 36.8716 145.51 35.8005 149.014 38.8587L148.857 40.0483C146.017 61.2847 161.024 80.8679 182.292 83.6956L186.362 84.2387C188.095 84.4698 189.841 84.5869 191.589 84.589C200.792 84.5637 209.688 81.2865 216.701 75.3385C223.714 69.3904 228.39 61.1558 229.901 52.0948H242.931C244.741 52.0959 246.508 52.6506 247.993 53.6842C249.478 54.7179 250.61 56.1808 251.237 57.8761L252.649 61.7446C253.125 63.0422 254.097 64.098 255.353 64.68C256.608 65.2619 258.044 65.3222 259.344 64.8476C260.644 64.3731 261.702 63.4025 262.285 62.1495C262.868 60.8964 262.928 59.4635 262.453 58.166V58.1597ZM220.229 45.875L219.744 49.4839C219.25 53.1853 218.03 56.7533 216.154 59.9841C214.278 63.2149 211.783 66.0453 208.811 68.3136C205.84 70.582 202.449 72.2438 198.834 73.2041C195.219 74.1645 191.449 74.4047 187.741 73.9109L183.67 73.3678C168.104 71.3 157.124 56.9689 159.201 41.4256L159.655 38.017C159.658 38.0142 159.66 38.0108 159.661 38.0071C159.663 38.0034 159.663 37.9995 159.663 37.9956L159.686 37.8166C159.692 37.7589 159.702 37.7017 159.716 37.6453V37.6226C160.431 32.6294 162.923 28.0601 166.737 24.751C170.551 21.442 175.432 19.6146 180.485 19.6032C181.428 19.6021 182.369 19.664 183.303 19.7884L202.171 22.296C207.697 23.036 212.704 25.9349 216.09 30.3561C219.477 34.7773 220.967 40.3593 220.234 45.8762L220.229 45.875Z" fill="#1B1D21"/>
<path d="M119.715 51.7005C120.47 51.1274 121.19 50.5088 121.87 49.8481C121.489 50.1833 120.207 51.2859 119.715 51.7005Z" fill="#1B1D21"/>
<path d="M159.706 37.6453C159.691 37.765 159.675 37.8834 159.653 37.9956L159.675 37.8166C159.682 37.7589 159.692 37.7017 159.706 37.6453Z" fill="#1B1D21"/>
<path d="M184.01 258.528C184.011 259.768 183.667 260.983 183.015 262.039C182.363 263.094 181.43 263.947 180.32 264.503L115.694 296.975C113.755 297.944 111.537 298.207 109.424 297.718L96.3714 294.694C95.0332 294.384 93.7809 293.78 92.7054 292.927C91.63 292.074 90.7583 290.992 90.1536 289.761L44.224 196.361C43.5558 195.001 43.2945 193.478 43.4717 191.974C43.6488 190.47 44.2567 189.049 45.2227 187.881C45.8995 187.049 46.7427 186.367 47.6984 185.878L118.243 149.62C118.569 149.453 118.927 149.356 119.294 149.337C119.66 149.319 120.026 149.377 120.368 149.51C120.71 149.643 121.02 149.847 121.277 150.109C121.534 150.37 121.732 150.683 121.859 151.026L124.199 157.374L134.316 161.093L137.656 159.264C137.971 159.091 138.318 158.986 138.675 158.955C139.033 158.923 139.393 158.966 139.733 159.081C140.073 159.195 140.385 159.379 140.65 159.621C140.915 159.862 141.127 160.156 141.272 160.483L183.439 255.829C183.819 256.678 184.014 257.598 184.01 258.528Z" fill="#34A853"/>
<g opacity="0.6">
<path d="M184.01 258.528C184.011 259.768 183.667 260.983 183.015 262.039C182.363 263.094 181.43 263.947 180.32 264.503L180.194 264.57C180.103 264.008 179.94 263.461 179.709 262.941L137.536 167.593C137.391 167.265 137.179 166.971 136.914 166.73C136.65 166.488 136.337 166.304 135.997 166.19C135.657 166.075 135.297 166.032 134.939 166.064C134.582 166.095 134.235 166.201 133.921 166.373L130.581 168.203L120.465 164.483L118.124 158.142C117.998 157.798 117.8 157.485 117.543 157.223C117.286 156.962 116.977 156.757 116.635 156.624C116.293 156.491 115.926 156.431 115.56 156.45C115.193 156.469 114.835 156.565 114.508 156.732L43.9627 192.99C43.7794 193.083 43.6015 193.186 43.4299 193.299C43.3205 191.332 43.9595 189.397 45.2188 187.881C45.8957 187.049 46.7389 186.367 47.6946 185.878L118.239 149.62C118.565 149.453 118.924 149.356 119.29 149.337C119.656 149.319 120.022 149.377 120.364 149.51C120.706 149.643 121.016 149.847 121.273 150.109C121.53 150.37 121.728 150.683 121.855 151.026L124.196 157.374L134.312 161.093L137.652 159.264C137.967 159.091 138.314 158.986 138.671 158.955C139.029 158.923 139.389 158.966 139.729 159.081C140.069 159.195 140.381 159.379 140.646 159.621C140.911 159.862 141.123 160.156 141.268 160.483L183.436 255.829C183.817 256.678 184.013 257.598 184.01 258.528Z" fill="white"/>
</g>
<path d="M111.515 300.192C110.641 300.192 109.769 300.092 108.918 299.895L95.8639 296.87C94.2013 296.487 92.6454 295.738 91.3098 294.678C89.9742 293.618 88.8925 292.274 88.1437 290.744L42.2154 197.346C41.0472 194.969 40.8594 192.228 41.6924 189.714C42.5253 187.199 44.3126 185.111 46.6707 183.896L117.218 147.634C117.825 147.322 118.493 147.142 119.175 147.106C119.858 147.071 120.54 147.18 121.177 147.428C121.814 147.675 122.391 148.055 122.87 148.542C123.349 149.028 123.718 149.611 123.954 150.252L125.942 155.636L134.133 158.648L136.581 157.307C137.167 156.985 137.813 156.789 138.48 156.731C139.146 156.672 139.817 156.752 140.45 156.966C141.084 157.181 141.666 157.524 142.159 157.974C142.652 158.425 143.046 158.973 143.316 159.584L185.483 254.928C186.41 257.022 186.494 259.391 185.718 261.545C184.943 263.699 183.367 265.473 181.317 266.499L116.699 298.97C115.089 299.773 113.315 300.192 111.515 300.192ZM119.432 151.563C119.376 151.563 119.321 151.577 119.272 151.604L48.721 187.864C47.4049 188.543 46.4073 189.709 45.9415 191.113C45.4758 192.517 45.5789 194.047 46.2289 195.376L92.1622 288.775C92.6198 289.711 93.2808 290.532 94.0971 291.179C94.9133 291.827 95.8642 292.284 96.8802 292.518L109.932 295.542C111.537 295.912 113.221 295.711 114.694 294.975L179.315 262.507C180.339 261.995 181.126 261.108 181.514 260.032C181.901 258.956 181.859 257.772 181.397 256.726L139.229 161.385C139.21 161.34 139.181 161.299 139.145 161.266C139.109 161.233 139.066 161.208 139.02 161.193C138.974 161.177 138.925 161.171 138.876 161.175C138.828 161.179 138.781 161.194 138.738 161.218L135.391 163.057C135.111 163.21 134.8 163.301 134.481 163.325C134.162 163.349 133.842 163.304 133.542 163.194L123.425 159.473C123.122 159.361 122.846 159.185 122.618 158.957C122.389 158.728 122.213 158.453 122.101 158.15L119.758 151.799C119.742 151.752 119.715 151.709 119.681 151.673C119.647 151.637 119.605 151.608 119.558 151.59C119.518 151.573 119.476 151.564 119.432 151.563Z" fill="#1B1D21"/>
<path d="M134.316 161.095L63.5276 198.858C63.2702 198.996 62.9838 199.07 62.692 199.075C62.4002 199.079 62.1115 199.015 61.8497 198.886L55.8983 195.965C55.5929 195.816 55.3351 195.584 55.1537 195.297C54.9722 195.009 54.8743 194.677 54.8708 194.338C54.8672 193.998 54.9582 193.664 55.1336 193.373C55.309 193.082 55.562 192.845 55.8642 192.689L124.199 157.374L134.316 161.095Z" fill="white"/>
<path d="M62.6602 201.306C62.0379 201.306 61.4238 201.164 60.865 200.891L54.911 197.969C54.2343 197.637 53.6633 197.123 53.2615 196.486C52.8597 195.849 52.6428 195.113 52.6351 194.361C52.6274 193.608 52.8291 192.868 53.2177 192.223C53.6064 191.578 54.1668 191.053 54.8366 190.707L123.17 155.391C123.446 155.249 123.749 155.165 124.059 155.146C124.37 155.127 124.68 155.172 124.972 155.279L135.088 159C135.493 159.149 135.846 159.411 136.105 159.755C136.363 160.1 136.517 160.511 136.547 160.941C136.576 161.37 136.481 161.799 136.272 162.175C136.064 162.552 135.75 162.86 135.37 163.063L64.5818 200.828C63.9904 201.143 63.3304 201.307 62.6602 201.306ZM57.5938 194.307L62.6539 196.791L128.868 161.466L124.356 159.808L57.5938 194.307Z" fill="#1B1D21"/>
<path d="M55.8958 198.198C55.5003 198.198 55.1121 198.093 54.7709 197.893L43.1951 191.147C42.9343 191.003 42.705 190.808 42.5206 190.574C42.3362 190.34 42.2005 190.072 42.1214 189.785C42.0423 189.499 42.0215 189.199 42.0601 188.904C42.0987 188.609 42.196 188.324 42.3463 188.068C42.4965 187.811 42.6967 187.586 42.9351 187.408C43.1735 187.229 43.4452 187.1 43.7343 187.027C44.0234 186.955 44.3242 186.941 44.6188 186.986C44.9134 187.031 45.196 187.135 45.4499 187.291L57.0257 194.037C57.4489 194.285 57.7787 194.666 57.9641 195.119C58.1496 195.573 58.1805 196.075 58.052 196.547C57.9235 197.02 57.6428 197.438 57.2532 197.735C56.8636 198.033 56.3866 198.195 55.8958 198.196V198.198Z" fill="#1B1D21"/>
<path d="M111.896 300.193C111.476 300.193 111.065 300.075 110.709 299.852C110.353 299.629 110.068 299.31 109.885 298.933L61.5177 199.836C61.3808 199.572 61.2982 199.283 61.2748 198.986C61.2515 198.689 61.2878 198.391 61.3816 198.108C61.4755 197.826 61.625 197.565 61.8214 197.341C62.0177 197.117 62.257 196.934 62.5251 196.804C62.7932 196.673 63.0847 196.598 63.3825 196.581C63.6803 196.565 63.9783 196.608 64.2591 196.709C64.5399 196.809 64.7978 196.964 65.0175 197.166C65.2373 197.367 65.4145 197.61 65.5388 197.881L113.906 296.982C114.072 297.323 114.149 297.699 114.129 298.077C114.109 298.455 113.993 298.822 113.792 299.143C113.591 299.464 113.312 299.729 112.98 299.913C112.649 300.096 112.276 300.193 111.896 300.193Z" fill="#1B1D21"/>
<path d="M133.012 178.719L87.5424 201.326L100.039 226.365L145.509 203.757L133.012 178.719Z" fill="white"/>
<path d="M100.041 228.221C99.8403 228.221 99.6404 228.189 99.4493 228.126C99.2173 228.048 99.0028 227.925 98.8183 227.765C98.6337 227.605 98.4826 227.409 98.3737 227.191L85.875 202.152C85.6547 201.711 85.6192 201.2 85.7761 200.733C85.9331 200.265 86.2698 199.879 86.712 199.659L132.183 177.05C132.626 176.83 133.138 176.795 133.606 176.951C134.075 177.108 134.462 177.444 134.683 177.885L147.182 202.924C147.291 203.142 147.356 203.38 147.373 203.624C147.39 203.867 147.359 204.112 147.281 204.344C147.203 204.575 147.081 204.789 146.92 204.974C146.759 205.158 146.564 205.309 146.345 205.417L100.873 228.026C100.615 228.155 100.33 228.222 100.041 228.221ZM90.0437 202.159L100.873 223.866L143.007 202.917L132.183 181.21L90.0437 202.159Z" fill="#1B1D21"/>
<g opacity="0.2">
<path d="M184.01 260.976C184.011 262.216 183.666 263.431 183.015 264.486C182.363 265.541 181.43 266.395 180.32 266.951L115.694 299.422C113.755 300.392 111.537 300.655 109.424 300.167L96.3714 297.143C95.0332 296.833 93.7808 296.229 92.7053 295.376C91.6298 294.523 90.7581 293.442 90.1536 292.21L44.224 198.815C43.5556 197.454 43.2942 195.931 43.4713 194.426C43.6485 192.922 44.2565 191.5 45.2227 190.332L81.7896 214.685C116.23 289.883 168.951 268.96 184.01 260.976Z" fill="#1B1D21"/>
</g>
<path d="M80.7076 236.058C80.7076 236.058 64.6575 254.473 48.8384 236.058C39.9454 225.7 41.2634 213.25 43.7026 205C45.3047 199.582 47.4004 195.967 47.4004 195.967L54.5967 207.113H74.7221C74.7221 207.113 72.5595 215.484 65.1347 219.078H79.5158C79.5158 219.078 75.1993 229.837 68.9664 232.226L80.4324 235.968L80.7076 236.058Z" fill="#4071F0"/>
<g opacity="0.2">
<path d="M80.7076 238.505C80.7076 238.505 64.6575 256.921 48.8384 238.505C39.9454 228.148 41.2634 215.697 43.7026 207.447C47.1542 220.498 56.5914 242.634 80.4324 238.41L80.7076 238.505Z" fill="#1B1D21"/>
</g>
<path d="M64.1348 246.475H64.0654C57.9271 246.452 52.2333 243.437 47.148 237.511C31.5511 219.35 44.8969 195.841 45.4726 194.849C45.6649 194.518 45.939 194.242 46.2688 194.047C46.5986 193.852 46.973 193.746 47.3561 193.737C47.7392 193.728 48.1181 193.817 48.4566 193.997C48.7951 194.176 49.0818 194.439 49.2891 194.761L55.8175 204.887H74.7196C75.0605 204.887 75.3969 204.965 75.703 205.115C76.0091 205.264 76.2769 205.482 76.486 205.751C76.695 206.019 76.8397 206.332 76.909 206.665C76.9784 206.999 76.9705 207.343 76.886 207.673C76.8141 207.949 75.5453 212.713 71.7553 216.843H79.512C79.8775 216.842 80.2375 216.932 80.5604 217.103C80.8833 217.273 81.1593 217.521 81.3643 217.823C81.5692 218.125 81.6969 218.472 81.736 218.835C81.7752 219.198 81.7246 219.565 81.5888 219.903C81.2177 220.831 78.4844 227.395 74.0341 231.532L81.4045 233.935C81.7555 234.049 82.0727 234.248 82.3277 234.514C82.5828 234.781 82.7677 235.106 82.8661 235.461C82.9645 235.817 82.9733 236.19 82.8916 236.55C82.81 236.909 82.6404 237.243 82.3981 237.521C82.0787 237.887 74.4734 246.475 64.1348 246.475ZM47.6921 200.539C44.8489 207.296 40.2623 222.637 50.539 234.604C54.7356 239.49 59.2818 241.982 64.0477 242.008C69.2012 242.026 73.7336 239.183 76.4202 237.007L68.2733 234.352C67.8342 234.208 67.4504 233.933 67.1744 233.563C66.8984 233.194 66.7439 232.748 66.732 232.287C66.7201 231.826 66.8514 231.373 67.108 230.989C67.3645 230.606 67.7336 230.311 68.1647 230.145C71.3348 228.928 74.2247 224.617 75.9846 221.307H65.1272C64.6206 221.307 64.129 221.136 63.7328 220.821C63.3365 220.506 63.0591 220.067 62.9461 219.574C62.833 219.081 62.8909 218.564 63.1103 218.109C63.3297 217.653 63.6976 217.285 64.1538 217.066C68.0006 215.208 70.2567 211.783 71.4434 209.349H54.5916C54.2172 209.349 53.8488 209.255 53.5201 209.076C53.1914 208.897 52.913 208.639 52.7105 208.324L47.6921 200.539Z" fill="#1B1D21"/>
<path d="M196.855 203.765C196.855 203.765 184.942 257.762 130.402 256.117C130.402 256.117 113.464 288.909 90.1461 266.586C90.1461 266.586 76.4063 261.491 86.9482 253.194C86.9482 253.194 70.9725 245.098 94.2984 235.427C93.477 233.474 92.1991 231.745 90.5715 230.386C90.4743 230.304 90.3771 230.222 90.2799 230.148C89.0805 229.203 89.4226 227.299 90.8985 226.897C95.9485 225.527 105.071 224.538 113.711 231.181C113.711 231.181 130.156 214.127 148.972 211.97C148.972 211.97 155.22 191.597 167.521 184.744C168.52 184.184 169.571 183.72 170.659 183.358L196.855 203.765Z" fill="#4071F0"/>
<g opacity="0.6">
<path d="M167.521 184.754C167.521 184.754 156.442 203.14 156.442 218.453C156.442 218.453 138.401 217.113 113.718 238.825C113.718 238.825 103.304 230.224 90.5715 230.395C90.4743 230.313 90.3771 230.231 90.2799 230.157C89.0805 229.212 89.4226 227.308 90.8985 226.906C95.9485 225.536 105.071 224.547 113.711 231.19C113.711 231.19 130.156 214.136 148.972 211.979C148.975 211.98 155.22 191.607 167.521 184.754Z" fill="white"/>
</g>
<g opacity="0.2">
<path d="M196.855 205.453C196.855 205.453 184.942 259.449 130.402 257.805C130.402 257.805 113.464 290.596 90.1461 268.275C90.1461 268.275 77.7862 263.691 85.5089 256.131C107.277 278.183 126.473 247.815 126.473 247.815C172.225 252.83 191.427 218.096 196.847 205.44L196.855 205.453Z" fill="#1B1D21"/>
</g>
<path d="M197.653 203.944C197.361 205.879 196.948 207.794 196.418 209.678C195.913 211.568 195.294 213.41 194.626 215.244C193.264 218.915 191.607 222.471 189.674 225.877C185.779 232.692 180.72 238.92 174.65 244.071C168.553 249.248 161.46 253.127 153.807 255.47C152.852 255.744 151.886 255.988 150.925 256.247L149.483 256.625L148.021 256.911L145.096 257.467L142.157 257.816C140.195 258.103 138.216 258.108 136.247 258.229C135.263 258.307 134.278 258.229 133.294 258.229L130.345 258.155L132.223 257.051V257.059C131.668 258.094 131.127 258.987 130.533 259.909C129.94 260.831 129.335 261.715 128.689 262.585C127.403 264.343 125.997 266.01 124.482 267.575C121.441 270.698 117.834 273.487 113.521 275.107C111.35 275.939 109.046 276.375 106.72 276.392C104.398 276.393 102.091 276.014 99.8913 275.272C95.5697 273.707 91.8769 271.062 88.7346 268.061L89.4353 268.499C88.9644 268.318 88.6146 268.16 88.2207 267.975C87.8268 267.79 87.4632 267.597 87.0921 267.398C86.3371 266.987 85.6119 266.524 84.9218 266.012C84.1888 265.472 83.5155 264.856 82.9132 264.174C82.2388 263.417 81.7083 262.543 81.3477 261.596C80.9627 260.558 80.8455 259.44 81.0068 258.345C81.1655 257.325 81.532 256.347 82.0837 255.473C83.0937 253.816 84.3802 252.633 85.6857 251.592L86.0253 255.011C85.6629 254.822 85.4306 254.68 85.1478 254.507C84.865 254.334 84.6163 254.165 84.3575 253.983C83.8351 253.616 83.3363 253.217 82.864 252.788C81.8327 251.886 80.9823 250.796 80.3579 249.577C79.6559 248.191 79.4229 246.616 79.6938 245.086C79.9703 243.544 80.7215 242.259 81.551 241.231C82.3552 240.243 83.2768 239.358 84.2956 238.593C85.2446 237.861 86.2421 237.194 87.2814 236.596C89.3166 235.41 91.4085 234.444 93.5156 233.551L92.3794 236.138L92.2317 235.801C92.1673 235.667 92.1054 235.532 92.0284 235.398C91.8858 235.129 91.7317 234.859 91.5626 234.599C91.2298 234.076 90.8566 233.58 90.4465 233.115C90.0464 232.655 89.6066 232.231 89.1323 231.848L88.8634 231.618C88.721 231.499 88.5896 231.367 88.4707 231.224C88.2194 230.938 88.0133 230.615 87.8597 230.266C87.5497 229.57 87.4492 228.799 87.5706 228.046C87.691 227.283 88.04 226.573 88.5717 226.011C88.8407 225.726 89.1525 225.485 89.4959 225.297C89.662 225.201 89.836 225.12 90.016 225.053C90.1814 224.993 90.4112 224.92 90.4667 224.91C91.2242 224.711 91.9817 224.54 92.7392 224.394C94.2722 224.102 95.8263 223.934 97.3865 223.89C98.9549 223.834 100.525 223.916 102.079 224.135C102.862 224.219 103.63 224.402 104.403 224.549C105.161 224.753 105.936 224.927 106.676 225.187C109.665 226.173 112.466 227.657 114.959 229.576L112.236 229.779C113.529 228.482 114.782 227.333 116.114 226.19C117.446 225.047 118.785 223.955 120.166 222.895C122.938 220.775 125.837 218.826 128.848 217.061C131.893 215.296 135.076 213.779 138.365 212.524C141.715 211.291 145.191 210.429 148.731 209.956L147.011 211.385C148.799 205.249 151.584 199.447 155.254 194.21C157.118 191.605 159.24 189.133 161.77 187.068C163.024 186.018 164.384 185.102 165.829 184.335C167.292 183.599 168.818 182.976 170.412 182.64C170.595 182.601 170.786 182.63 170.948 182.722C171.111 182.813 171.235 182.962 171.296 183.138C171.356 183.315 171.35 183.508 171.278 183.68C171.206 183.852 171.074 183.992 170.905 184.074H170.893C168.212 185.374 165.92 187.224 163.914 189.366C163.409 189.894 162.933 190.459 162.452 191.004C161.992 191.583 161.529 192.15 161.097 192.752C160.213 193.926 159.389 195.163 158.609 196.428C157.039 198.948 155.668 201.613 154.389 204.322C153.758 205.682 153.146 207.052 152.568 208.436C151.972 209.8 151.431 211.241 150.918 212.571C150.801 212.942 150.581 213.273 150.283 213.525C149.986 213.776 149.623 213.939 149.237 213.994H149.197C145.985 214.429 142.83 215.214 139.789 216.334C136.716 217.507 133.743 218.924 130.898 220.572C128.039 222.251 125.285 224.103 122.653 226.117C121.335 227.125 120.042 228.171 118.788 229.258C117.535 230.346 116.286 231.482 115.179 232.594L115.156 232.617C114.805 232.968 114.338 233.18 113.842 233.213C113.346 233.246 112.855 233.097 112.461 232.795C110.338 231.16 107.954 229.895 105.408 229.053C104.777 228.826 104.127 228.69 103.484 228.514C102.829 228.388 102.181 228.231 101.515 228.163C100.188 227.975 98.8461 227.905 97.5064 227.954C96.1577 227.992 94.8143 228.138 93.4891 228.391C92.8251 228.519 92.166 228.668 91.5121 228.839C91.3858 228.868 91.4502 228.863 91.4439 228.86C91.4376 228.858 91.4603 228.86 91.4691 228.848C91.4924 228.833 91.514 228.815 91.5335 228.796C91.5611 228.764 91.581 228.727 91.5916 228.686C91.5974 228.655 91.593 228.622 91.579 228.593C91.5689 228.577 91.56 228.559 91.5512 228.548C91.5424 228.536 91.5512 228.539 91.5424 228.538C91.5335 228.536 91.5083 228.517 91.5651 228.563L91.6913 228.664C92.348 229.191 92.9571 229.774 93.5119 230.408C94.0634 231.033 94.5652 231.699 95.013 232.402C95.2377 232.753 95.446 233.113 95.6442 233.485C95.7427 233.671 95.8382 233.861 95.9308 234.056C96.0268 234.268 96.1012 234.421 96.2149 234.717C96.4 235.203 96.3898 235.742 96.1863 236.221C95.9828 236.7 95.6017 237.081 95.1228 237.286L95.0811 237.304C93.1003 238.143 91.1535 239.046 89.3507 240.098C87.568 241.146 85.8674 242.366 84.7514 243.752C84.1896 244.439 83.8197 245.154 83.7111 245.807C83.5944 246.479 83.7045 247.17 84.0242 247.773C84.4237 248.528 84.961 249.202 85.6086 249.76C85.9584 250.077 86.3278 250.372 86.7146 250.642C86.9103 250.78 87.1097 250.913 87.3117 251.039C87.5137 251.165 87.7435 251.3 87.8748 251.368L87.8912 251.377C88.1292 251.5 88.3405 251.669 88.5132 251.873C88.6858 252.078 88.8164 252.314 88.8974 252.569C88.9784 252.824 89.0083 253.093 88.9853 253.359C88.9624 253.626 88.887 253.885 88.7636 254.123C88.6284 254.379 88.4409 254.605 88.2132 254.785C87.1312 255.636 86.1616 256.59 85.5872 257.558C85.3124 257.973 85.1283 258.442 85.0468 258.934C84.9843 259.355 85.0308 259.785 85.1819 260.184C85.4849 261.037 86.3182 261.965 87.3673 262.737C87.9045 263.135 88.4689 263.495 89.0565 263.814C89.3545 263.978 89.66 264.135 89.968 264.28C90.2761 264.425 90.6157 264.574 90.8518 264.667L90.8796 264.678C91.1299 264.777 91.3588 264.922 91.5537 265.107C94.4196 267.851 97.6781 270.121 101.216 271.407C104.766 272.592 108.581 272.654 112.092 271.274C115.613 269.958 118.792 267.558 121.542 264.729C122.924 263.296 124.206 261.771 125.381 260.165C125.977 259.363 126.537 258.534 127.08 257.698C127.623 256.861 128.15 255.979 128.579 255.177C128.735 254.857 128.976 254.585 129.276 254.391C129.575 254.197 129.923 254.089 130.28 254.078H130.456L133.255 253.998L134.652 253.963L135.35 253.949L136.045 253.891C137.894 253.713 139.757 253.654 141.58 253.321L144.325 252.905L147.032 252.324L148.385 252.038L149.714 251.66C150.598 251.408 151.482 251.168 152.366 250.904C155.857 249.759 159.241 248.312 162.479 246.578C165.697 244.801 168.748 242.739 171.596 240.417C177.306 235.754 182.101 230.007 186.134 223.747C190.193 217.423 193.525 210.663 196.066 203.594L196.08 203.554C196.148 203.364 196.285 203.207 196.464 203.112C196.642 203.017 196.849 202.991 197.045 203.04C197.242 203.088 197.413 203.207 197.526 203.374C197.639 203.541 197.687 203.744 197.659 203.944H197.653Z" fill="#1B1D21"/>
</g>
<defs>
<clipPath id="clip0_440_11482">
<rect width="318" height="382" fill="white"/>
</clipPath>
</defs>
</svg>
